<?xml version="1.0" standalone="no"?>
<!DOCTYPE svg PUBLIC "-//W3C//DTD SVG 20010904//EN"
 "http://www.w3.org/TR/2001/REC-SVG-20010904/DTD/svg10.dtd">
<svg version="1.0" xmlns="http://www.w3.org/2000/svg"
 width="1080.000000pt" height="1621.000000pt" viewBox="0 0 1080.000000 1621.000000"
 preserveAspectRatio="xMidYMid meet">

<g transform="translate(0.000000,1621.000000) scale(0.100000,-0.100000)"
fill="#000000" stroke="none">
<path d="M3278 15526 c-57 -20 -85 -42 -116 -88 l-27 -42 0 -506 0 -506 28
-42 c15 -23 46 -54 69 -69 l42 -28 509 -3 510 -3 54 27 c62 30 102 82 110 142
l5 39 -88 36 c-103 40 -361 153 -386 167 -30 17 -42 12 -97 -41 -65 -62 -137
-109 -216 -139 -87 -34 -237 -34 -313 -1 -90 40 -142 118 -142 211 0 62 21
114 63 158 56 59 100 75 214 80 107 4 196 -9 321 -50 34 -11 69 -18 76 -15 7
3 23 34 36 69 12 34 25 69 27 75 4 10 -54 13 -253 15 l-259 3 -3 33 -3 32 135
0 136 0 0 40 0 40 -166 0 -165 0 3 32 3 33 163 -2 162 -1 0 63 c0 95 0 95 91
95 l78 0 3 -77 3 -76 143 1 c154 2 185 -5 180 -41 -3 -21 -7 -22 -165 -25
l-163 -2 0 -40 0 -40 130 0 c124 0 130 -1 130 -20 0 -28 -33 -123 -69 -195
-16 -33 -26 -63 -23 -67 10 -10 296 -108 359 -123 l52 -12 3 341 c3 382 -1
413 -59 471 -64 64 -73 65 -607 65 -375 -1 -489 -4 -518 -14z"/>
<path d="M5075 15348 c-2 -13 -6 -43 -7 -68 l-3 -45 -177 -3 -178 -2 0 -30 0
-30 180 0 181 0 -3 -57 -3 -58 -147 -3 -148 -3 0 -29 0 -30 300 0 c220 0 300
-3 300 -12 0 -44 -167 -258 -202 -258 -6 0 -56 45 -110 100 l-99 100 -70 0
c-38 0 -69 -3 -69 -7 0 -27 108 -150 182 -209 32 -26 58 -52 58 -59 0 -16
-166 -98 -272 -135 -78 -27 -83 -31 -86 -60 -2 -21 2 -32 13 -37 23 -8 248 67
365 123 l95 45 105 -50 c123 -58 322 -126 345 -118 18 8 20 51 3 64 -7 5 -40
19 -73 32 -83 33 -275 131 -275 141 0 4 12 16 28 26 48 31 113 97 158 161 41
57 104 180 104 203 0 6 -60 11 -152 12 l-153 3 0 55 0 55 177 3 c144 2 177 5
182 17 15 41 1 44 -182 47 l-177 3 -3 68 -3 67 -89 0 c-85 0 -90 -1 -95 -22z"/>
<path d="M5853 15358 c-5 -7 -20 -38 -33 -68 -12 -30 -31 -73 -40 -95 -120
-268 -118 -253 -39 -257 l64 -3 3 -257 2 -258 75 0 75 0 0 340 c0 330 -1 340
-19 340 -11 0 -22 3 -24 8 -3 4 19 61 48 127 29 66 51 123 48 128 -8 13 -150
8 -160 -5z"/>
<path d="M7127 15363 c-4 -3 -7 -23 -7 -44 l0 -39 -167 -2 -168 -3 0 -75 0
-75 88 -3 87 -3 0 51 0 50 258 -2 257 -3 3 -48 3 -48 87 3 87 3 3 60 c1 33 -2
67 -8 75 -7 12 -42 16 -172 20 l-163 5 -3 43 -3 42 -88 0 c-48 0 -91 -3 -94
-7z"/>
<path d="M6438 15278 l-3 -83 -197 -3 -198 -2 0 -30 0 -30 198 -2 197 -3 3
-307 c2 -297 2 -307 -17 -318 -11 -6 -24 -10 -28 -9 -4 1 -20 1 -35 0 -24 -1
-28 -5 -28 -31 l0 -30 113 0 c164 0 151 -31 157 369 l5 326 27 3 c17 2 30 11
34 24 7 24 -3 35 -36 40 -24 3 -25 7 -30 83 l-5 80 -77 3 -77 3 -3 -83z"/>
<path d="M6782 15023 l3 -28 173 -3 173 -2 -3 -68 -3 -67 -173 -3 -173 -2 3
-28 3 -27 172 -3 172 -2 3 -136 c2 -88 -1 -139 -8 -145 -6 -4 -84 -10 -175
-11 l-164 -3 0 -25 0 -25 448 -3 c246 -1 447 -1 447 0 0 2 -15 48 -34 103
l-33 100 -81 3 c-91 3 -93 1 -67 -61 8 -20 15 -48 15 -62 l0 -26 -87 3 -88 3
0 140 0 140 175 5 175 5 3 28 c4 31 18 29 -170 27 -65 -1 -133 2 -153 6 l-36
6 3 62 3 61 172 3 c161 2 172 4 178 22 3 11 3 24 0 30 -4 6 -159 10 -441 10
l-435 0 3 -27z"/>
<path d="M6101 15013 c0 -10 21 -81 47 -158 l47 -140 78 -3 c42 -2 77 1 76 5
0 4 -24 76 -52 158 l-52 150 -72 3 c-65 3 -73 1 -72 -15z"/>
<path d="M3390 14810 c-72 -27 -101 -56 -107 -111 -9 -92 69 -151 202 -152 57
-1 82 5 138 29 65 29 187 127 187 150 0 25 -247 104 -324 104 -23 -1 -66 -10
-96 -20z"/>
<path d="M0 6785 l0 -6785 5400 0 5400 0 0 6785 0 6785 -5400 0 -5400 0 0
-6785z m1558 5868 l3 -73 42 0 c24 0 48 -5 54 -11 9 -9 15 1 26 37 8 27 22 66
30 87 l16 37 89 0 c49 0 91 -3 95 -6 3 -3 -3 -31 -14 -61 -10 -31 -19 -58 -19
-60 0 -2 24 -3 53 -1 l52 3 -4 40 c-9 87 -17 80 89 80 l95 0 10 -60 11 -60 94
-5 95 -5 3 -66 c2 -46 -1 -69 -11 -77 -7 -6 -49 -12 -92 -14 l-80 -3 1 -32 c1
-18 2 -40 3 -48 1 -11 19 -15 79 -17 l77 -3 0 -80 0 -80 -76 -3 c-75 -3 -77
-3 -81 -30 -8 -66 -4 -71 80 -74 l77 -3 3 -77 3 -78 -68 -1 c-37 -1 -74 -1
-80 0 -9 1 -13 -14 -13 -49 l0 -50 84 0 84 0 6 -31 c8 -43 7 -101 -2 -117 -6
-9 -69 -13 -257 -15 -188 -1 -249 -5 -253 -14 -2 -9 -31 -13 -98 -13 -68 0
-94 3 -94 13 0 6 0 173 0 369 l0 357 -27 3 c-22 2 -29 9 -31 29 -3 22 -7 25
-28 21 -24 -4 -24 -5 -24 -123 l0 -119 40 0 c50 0 62 -20 58 -98 -3 -52 -5
-57 -28 -60 -76 -8 -70 6 -70 -181 0 -213 6 -206 -154 -206 l-111 0 0 75 0 75
38 3 37 3 0 105 0 104 -44 0 -44 0 -7 64 c-8 72 -3 86 28 86 12 0 32 3 45 6
21 6 22 10 22 135 l0 129 -31 0 c-59 0 -69 13 -69 89 0 76 4 81 66 81 l34 0 0
75 0 76 93 -3 92 -3 3 -72z m1302 42 l5 -30 145 0 145 0 5 30 5 30 95 0 c75 0
94 -3 92 -14 -1 -7 0 -22 3 -32 6 -17 17 -19 105 -19 80 0 99 -3 104 -16 11
-28 6 -120 -6 -132 -8 -8 -46 -12 -104 -12 l-93 0 -3 -32 -3 -33 -95 0 -95 0
-3 33 -3 32 -150 0 c-170 0 -179 -6 -98 -57 l51 -33 294 0 294 0 10 -25 c10
-25 6 -107 -5 -126 -4 -5 -150 -9 -366 -9 l-359 0 -30 -42 c-28 -38 -30 -48
-30 -124 l0 -82 174 -2 175 -1 37 33 37 33 -184 5 -184 5 0 75 0 75 322 3 322
2 27 -23 c20 -17 27 -33 27 -57 0 -28 -9 -42 -53 -82 -30 -26 -52 -50 -49 -52
2 -2 31 -6 65 -8 34 -3 66 -8 72 -12 16 -10 16 -128 0 -144 -8 -8 -54 -12
-140 -12 l-128 0 0 -81 c0 -76 -2 -82 -29 -110 l-29 -29 -171 0 c-93 0 -172 3
-174 8 -2 4 -1 39 2 77 l6 70 98 3 97 3 0 29 0 30 -160 0 -159 0 -3 -107 -3
-108 -95 0 -95 0 -3 183 c-1 100 -5 182 -8 182 -2 0 -22 -9 -44 -20 -22 -11
-44 -20 -50 -20 -6 0 -10 39 -10 108 l1 107 52 40 52 40 -50 5 -50 5 0 75 0
75 110 3 c118 2 158 10 115 21 -19 5 -26 14 -28 39 l-3 31 -97 3 -97 3 0 75 0
75 98 3 97 3 0 28 c0 15 3 31 7 35 4 4 48 5 97 4 l91 -3 5 -30z m1122 8 c-3
-23 -2 -23 127 -23 127 0 130 0 133 23 3 21 7 22 98 22 91 0 95 -1 98 -22 3
-22 7 -23 150 -25 l147 -3 0 -80 0 -80 -130 -2 c-71 -1 -138 -2 -148 -3 -13 0
-17 -6 -15 -22 3 -22 6 -23 145 -26 l142 -3 3 -177 c2 -97 0 -187 -4 -199 -14
-45 -52 -57 -181 -60 -65 -1 -120 -3 -122 -5 -15 -15 -74 -132 -70 -139 13
-19 198 -69 287 -76 l93 -8 0 -85 0 -85 -75 -3 c-93 -4 -226 25 -357 78 -77
31 -95 35 -104 24 -32 -39 -213 -115 -230 -97 -8 8 -14 93 -11 148 2 26 8 33
38 44 l35 13 -40 30 c-23 16 -41 32 -41 35 0 4 18 30 40 59 22 29 40 56 40 59
0 3 -10 5 -23 5 -44 0 -47 13 -47 206 0 238 -7 228 159 232 120 4 121 4 121
28 l0 24 -134 0 c-148 0 -161 5 -150 59 12 61 -6 30 -32 -55 -25 -80 -26 -88
-11 -99 16 -11 17 -47 15 -401 l-3 -389 -94 0 -94 0 -1 320 -1 320 -37 3 c-28
2 -38 8 -38 20 0 18 123 413 135 432 4 7 39 10 98 8 89 -3 92 -4 89 -25z
m1956 -496 l2 -519 -34 -34 -34 -34 -131 0 -132 0 3 78 3 77 63 3 62 3 0 65 0
65 -112 -3 -113 -3 -2 -140 -1 -140 -96 -3 -95 -3 -3 143 -3 143 -110 0 -110
0 -3 -143 -3 -143 -97 3 -97 3 0 523 0 524 33 29 33 29 487 -2 487 -3 3 -518z
m798 483 c2 -76 -20 -69 222 -72 l217 -3 0 -75 0 -75 -217 -3 -218 -2 0 -55 0
-55 194 0 c108 0 197 -4 201 -9 8 -13 -66 -179 -106 -237 -39 -59 -127 -164
-152 -182 -10 -8 -30 -24 -44 -36 l-27 -23 70 -23 c38 -12 112 -30 164 -39
l95 -17 3 -83 3 -83 -68 7 c-129 14 -295 57 -415 109 -37 16 -53 14 -113 -14
-91 -41 -293 -90 -392 -93 l-58 -2 -3 68 c-2 38 2 74 8 82 5 7 45 18 88 24 77
12 195 44 220 60 10 6 4 16 -22 39 -96 84 -207 228 -189 246 4 3 48 6 99 6
l92 0 53 -56 c30 -31 80 -76 113 -101 l59 -43 38 22 c60 36 199 175 199 199 0
5 -151 10 -357 11 l-358 3 0 80 0 80 203 3 202 2 0 55 0 55 -222 2 -223 3 -3
66 c-2 46 1 69 11 77 9 8 85 13 223 14 l209 3 3 40 c5 67 2 66 104 63 l93 -3
1 -35z m897 34 c3 -3 -6 -32 -20 -63 -14 -31 -41 -92 -60 -136 -19 -44 -36
-85 -39 -90 -2 -6 6 -15 18 -20 l23 -10 0 -390 0 -390 -95 0 -95 0 -3 323 -2
322 -50 0 c-27 0 -51 3 -54 8 -2 4 4 28 14 52 72 171 144 340 157 368 l15 32
92 0 c51 0 95 -3 99 -6z m627 -68 l0 -75 43 -3 c41 -3 42 -4 51 -46 11 -52 -2
-116 -24 -118 -8 -1 -27 -2 -42 -3 l-28 -1 0 -374 0 -375 -27 -21 c-24 -19
-37 -20 -172 -18 l-146 3 0 75 0 75 78 3 77 3 0 314 0 315 -222 0 c-123 0
-229 4 -236 9 -9 5 -12 29 -10 82 l3 74 233 3 232 2 0 75 0 75 95 0 95 0 0
-74z m822 52 c3 -23 4 -23 218 -28 l215 -5 3 -127 3 -128 -95 0 -95 0 -3 48
-3 47 -337 3 -338 2 0 -49 0 -50 -91 -3 c-50 -2 -93 -1 -95 1 -2 2 -4 47 -4
100 1 154 12 161 254 161 l176 0 0 25 c0 25 0 25 94 25 90 0 95 -1 98 -22z
m353 -408 l0 -75 -182 -3 -183 -2 0 -55 0 -55 190 0 c143 0 192 -3 195 -12 10
-27 12 -124 4 -140 -9 -16 -29 -18 -200 -18 l-190 0 3 -77 3 -78 54 -3 53 -3
-7 38 c-19 89 -20 88 73 91 48 2 89 -2 96 -7 7 -6 18 -35 25 -65 l12 -55 67
-3 67 -3 3 -78 3 -77 -543 2 -543 3 -3 57 c-6 101 -14 98 233 98 l215 0 0 80
0 80 -182 0 c-101 0 -189 4 -196 9 -9 5 -12 29 -10 82 l3 74 193 3 192 2 0 55
0 55 -174 0 c-127 0 -176 3 -184 13 -10 12 -14 84 -6 125 l4 22 458 -2 457 -3
0 -75z m-1596 31 c6 -10 29 -92 51 -182 22 -90 47 -189 55 -219 8 -30 14 -61
15 -67 0 -17 -176 -18 -186 -2 -3 6 -29 100 -56 208 -27 108 -53 210 -57 226
-13 51 -7 55 84 55 72 0 86 -3 94 -19z m1264 -1595 c75 -38 144 -107 182 -182
l30 -59 0 -4180 0 -4180 -29 -59 c-36 -75 -113 -152 -191 -191 l-60 -30 -3635
0 -3635 0 -59 30 c-85 43 -149 107 -188 190 l-33 70 -3 4149 c-1 3172 1 4158
10 4190 6 22 12 43 13 46 0 3 10 23 22 45 42 78 133 154 218 181 32 10 774 12
3670 11 l3630 -2 58 -29z m-6179 -9472 c12 -5 16 -20 16 -60 l0 -54 41 0 c38
0 40 -1 37 -27 -3 -24 -8 -28 -40 -31 -38 -3 -38 -3 -38 -48 0 -41 2 -45 20
-40 11 3 29 9 40 12 17 4 20 1 20 -24 0 -25 -5 -30 -40 -41 l-40 -12 0 -96 c0
-120 -9 -133 -87 -133 -29 0 -53 3 -53 8 0 4 -3 17 -6 30 -6 20 -3 22 40 22
l46 0 0 76 c0 68 -2 75 -17 69 -10 -3 -30 -9 -45 -12 -26 -5 -28 -3 -28 26 0
28 4 32 45 42 l45 11 0 54 0 54 -34 0 c-38 0 -60 19 -50 44 4 11 18 16 45 16
l39 0 0 54 c0 34 5 56 13 59 6 3 13 6 14 6 1 1 8 -2 17 -5z m1376 -40 l5 -39
118 -3 c116 -3 117 -3 117 -26 0 -13 -6 -26 -12 -29 -7 -2 -60 -5 -118 -5
l-105 0 -3 -31 -3 -31 80 0 81 0 0 -31 c0 -39 -30 -90 -88 -151 l-46 -47 36
-16 c20 -8 66 -24 102 -36 61 -20 66 -24 66 -50 0 -18 -5 -29 -14 -29 -25 0
-150 42 -199 67 l-49 24 -81 -35 c-88 -37 -165 -62 -171 -55 -11 11 -17 59 -8
59 6 0 23 5 39 12 15 6 30 12 33 12 21 4 120 50 120 55 0 4 -14 20 -31 37 -50
47 -89 114 -89 151 l0 33 80 0 80 0 0 30 0 30 -92 1 c-147 2 -143 1 -146 32
-2 17 1 27 10 28 7 0 61 0 121 -1 l107 -1 0 39 c0 45 3 49 32 47 19 -1 24 -9
28 -41z m1209 11 l12 -35 105 0 105 0 -3 -57 c-3 -55 -4 -58 -30 -61 -25 -3
-28 0 -28 27 l0 31 -184 0 -185 0 -3 -27 c-3 -24 -8 -28 -33 -28 -30 0 -30 1
-30 55 l0 55 108 3 107 3 -6 24 c-8 31 2 45 30 45 16 0 25 -9 35 -35z m666
-23 c0 -46 1 -47 33 -50 28 -3 32 -7 32 -33 0 -26 -3 -29 -30 -29 -16 0 -31
-3 -31 -7 -10 -68 -1 -95 26 -73 20 17 35 4 35 -30 0 -25 -5 -31 -32 -38 l-33
-8 -1 -95 c-2 -128 -9 -141 -82 -137 -54 3 -57 5 -60 31 -3 25 -1 27 31 27 41
0 47 11 47 87 0 55 0 55 -27 48 -15 -3 -32 -7 -37 -8 -10 -2 -31 52 -23 60 3
2 23 11 44 18 37 13 38 14 41 69 l3 56 -36 0 c-32 0 -35 2 -35 30 0 28 3 30
35 30 l35 0 0 48 c0 27 2 51 5 54 3 2 17 3 32 1 26 -4 28 -8 28 -51z m1208 49
c4 -1 7 -23 7 -50 0 -49 1 -50 33 -53 27 -2 33 -8 35 -30 3 -26 1 -28 -32 -28
l-36 0 0 -46 c0 -40 2 -45 18 -39 35 15 47 10 50 -18 3 -23 -2 -30 -32 -42
l-36 -15 0 -88 c0 -119 -10 -136 -79 -140 -56 -3 -71 5 -71 41 0 13 8 17 34
17 41 0 48 15 45 90 -3 54 -4 55 -44 40 -23 -9 -27 -7 -36 17 -12 31 -3 43 44
59 30 10 32 14 35 67 l3 57 -36 0 c-32 0 -35 2 -35 30 0 28 3 30 35 30 l35 0
0 48 c0 56 4 63 34 57 12 -2 24 -4 29 -4z m585 -279 l-3 -277 -70 0 c-69 0
-70 0 -73 28 -3 26 -2 27 43 27 l45 0 -2 218 -3 217 -42 3 c-40 3 -43 5 -43
31 0 15 2 30 4 32 2 2 36 3 75 1 l71 -4 -2 -276z m-3188 261 c2 -2 -5 -33 -18
-68 -20 -58 -22 -83 -22 -269 l0 -206 -30 0 -30 0 0 140 c0 77 -3 140 -6 140
-3 0 -15 -12 -27 -26 -19 -25 -21 -26 -34 -8 -16 22 -17 60 -2 70 10 6 95 177
112 227 5 14 13 17 29 11 13 -3 25 -8 28 -11z m286 -7 c3 -13 4 -39 2 -57 -3
-33 -2 -34 37 -39 35 -4 40 -9 43 -32 3 -29 -1 -32 -50 -28 -33 2 -31 13 -28
-156 3 -196 -12 -219 -131 -212 -51 3 -54 5 -57 31 -3 27 -2 27 52 27 69 0 68
-2 64 175 l-3 130 -108 1 c-60 1 -113 6 -117 10 -5 5 -7 19 -4 32 6 21 11 22
120 22 l114 0 0 60 c0 60 0 60 30 60 23 0 31 -5 36 -24z m924 -6 c0 -28 -2
-30 -40 -30 l-40 0 0 -220 0 -220 40 0 c38 0 40 -2 40 -30 l0 -31 -72 3 -73 3
-3 278 -2 277 75 0 75 0 0 -30z m-2080 -30 c0 -29 -1 -30 -50 -30 l-50 0 0
-80 0 -80 66 0 65 0 -3 -27 c-3 -27 -6 -28 -65 -31 l-63 -3 0 -124 0 -125 -30
0 -30 0 0 125 0 125 -79 0 -78 0 -12 -59 c-17 -86 -97 -197 -137 -189 -9 1
-21 10 -27 19 -8 13 -1 25 30 56 45 45 69 88 79 139 l6 34 -71 0 c-40 0 -72 4
-72 10 -6 45 -7 45 69 48 l72 3 0 79 0 80 -60 0 c-56 0 -60 1 -60 23 0 13 3
27 7 30 3 4 116 7 250 7 l243 0 0 -30z m-580 -9 c0 -28 -2 -30 -47 -33 l-48
-3 -5 -208 c-6 -243 -3 -237 -107 -237 l-63 0 0 30 c0 29 1 30 50 30 63 0 63
-2 58 216 l-3 169 -74 5 c-64 4 -75 8 -77 24 -2 11 -1 23 2 28 3 4 75 8 160 8
l154 0 0 -29z m3215 -230 l0 -254 -28 -4 c-22 -3 -30 1 -34 17 -5 19 -13 20
-127 20 -68 0 -125 2 -128 5 -2 3 -3 18 0 35 l4 30 124 0 124 0 0 70 0 70
-110 0 -110 0 0 35 0 35 110 0 110 0 0 65 0 65 -115 0 -115 0 0 35 0 36 148
-3 147 -3 0 -254z m1210 0 l0 -255 -29 -2 c-20 -1 -30 4 -33 17 -5 17 -17 19
-129 19 l-124 0 0 35 0 35 125 0 125 0 0 70 0 70 -110 0 -110 0 0 35 0 35 110
0 110 0 0 65 0 64 -112 3 -113 3 -3 33 -3 33 148 -3 148 -3 0 -254z m-2039 82
c4 -23 2 -23 -102 -23 l-105 0 3 -37 3 -38 90 -1 c89 -2 90 -2 93 -28 3 -24 1
-26 -37 -26 -43 0 -51 -9 -25 -30 27 -24 37 -50 23 -67 -11 -12 -10 -14 2 -13
7 1 31 2 52 1 36 -1 38 -3 35 -28 l-3 -28 -265 0 -265 0 -3 28 -3 27 120 0
121 0 0 55 0 55 -96 0 -95 0 3 26 3 27 93 -2 92 -2 0 40 0 41 -105 0 c-95 0
-105 2 -105 18 0 10 3 22 7 26 4 3 110 5 236 4 230 -3 230 -3 233 -25z m-819
-72 c24 -35 42 -68 40 -74 -2 -6 -13 -17 -24 -24 -20 -13 -23 -10 -68 62 -40
63 -45 78 -35 91 21 25 41 12 87 -55z m2283 29 l0 -40 -270 0 -270 0 0 33 c0
19 3 37 7 40 3 4 125 7 270 7 l263 0 0 -40z"/>
<path d="M1867 12433 c-4 -3 -7 -26 -7 -50 l0 -43 70 0 70 0 0 50 0 50 -63 0
c-35 0 -67 -3 -70 -7z"/>
<path d="M1862 12123 l3 -48 68 -3 67 -3 0 51 0 50 -70 0 -71 0 3 -47z"/>
<path d="M1873 11903 c-8 -3 -13 -23 -13 -49 l0 -44 70 0 70 0 0 50 0 50 -57
-1 c-32 0 -64 -3 -70 -6z"/>
<path d="M4160 12245 l0 -65 40 0 40 0 0 65 0 65 -40 0 -40 0 0 -65z"/>
<path d="M4440 12245 l0 -65 50 0 50 0 0 65 0 65 -50 0 -50 0 0 -65z"/>
<path d="M4118 12022 c-10 -2 -18 -7 -18 -10 0 -9 58 -42 72 -42 12 0 37 30
38 45 0 10 -58 14 -92 7z"/>
<path d="M5090 12485 l0 -85 115 0 116 0 -3 83 -3 82 -112 3 -113 3 0 -86z"/>
<path d="M5514 12557 c-3 -8 -4 -45 -2 -83 l3 -69 113 -3 112 -3 0 86 0 85
-110 0 c-84 0 -112 -3 -116 -13z"/>
<path d="M5090 12156 l0 -85 105 -3 c58 -2 110 -1 115 0 6 2 10 42 10 88 l0
84 -115 0 -115 0 0 -84z"/>
<path d="M5510 12155 l0 -85 115 0 115 0 0 85 0 85 -115 0 -115 0 0 -85z"/>
<path d="M2112 9583 l3 -558 558 -3 c442 -2 557 0 557 10 0 7 2 259 3 560 l2
548 -563 0 -563 0 3 -557z m959 35 c0 -200 2 -372 4 -383 3 -11 2 -28 -1 -38
-5 -16 -31 -17 -402 -15 l-397 3 -3 384 c-2 211 -1 390 2 397 4 12 78 14 401
14 l395 0 1 -362z"/>
<path d="M2432 9583 l3 -238 238 -3 c186 -2 237 0 238 10 0 7 1 115 2 240 l2
228 -243 0 -243 0 3 -237z"/>
<path d="M4191 9983 l3 -158 -83 -3 -84 -3 6 -68 c3 -37 2 -73 -2 -80 -5 -8
-32 -11 -81 -9 l-74 3 -4 77 -4 77 83 3 83 3 1 77 0 78 -83 0 -83 0 3 -77 3
-78 -80 0 -80 0 0 77 0 78 -83 0 -84 0 4 -157 3 -158 78 -3 77 -3 1 -42 c0
-23 1 -58 2 -77 l2 -35 -163 -3 -163 -3 3 -77 4 -77 77 -3 77 -3 1 -42 c0 -23
1 -58 2 -77 l2 -35 -83 -3 -84 -3 2 -147 c1 -81 2 -153 1 -159 -1 -10 -40 -13
-162 -13 l-160 0 3 -77 4 -78 77 -3 77 -3 1 -42 c0 -23 1 -58 2 -77 l2 -35
-160 0 -159 0 -1 75 0 75 -80 5 -80 5 0 77 0 78 -163 0 -163 0 3 -77 4 -78 77
-3 77 -3 1 -42 c0 -23 1 -58 2 -77 l2 -35 -163 -3 -163 -3 3 -77 4 -77 154 -3
c104 -2 156 1 160 9 4 6 5 42 2 80 l-5 69 82 0 81 0 1 -362 c0 -200 2 -372 4
-383 10 -48 -1 -55 -86 -55 l-80 0 3 -77 4 -78 157 -3 c122 -2 157 0 158 10 0
7 1 78 2 158 l2 145 80 5 80 5 -3 77 -3 77 83 3 82 3 1 77 0 78 -83 0 -83 0 3
-77 3 -78 -80 0 -80 0 0 155 0 155 155 3 c94 1 157 7 161 13 3 6 4 42 1 80
l-5 69 82 0 c57 0 81 4 82 13 1 6 2 41 3 77 l1 65 79 5 79 5 -2 238 -2 237 80
0 81 0 1 -42 c1 -24 2 -59 3 -78 l2 -35 77 -3 c57 -2 77 0 78 10 0 7 1 79 2
160 l2 147 -79 3 -80 3 -4 78 -4 77 161 0 161 0 1 -282 c0 -156 1 -299 2 -318
l2 -35 -83 -3 -83 -3 3 -77 3 -77 -163 -3 -164 -3 2 -227 c1 -125 1 -233 1
-239 -1 -9 -24 -13 -82 -13 l-80 0 3 -77 3 -78 -84 -3 -84 -3 5 -67 c3 -37 3
-73 1 -79 -3 -9 -30 -13 -85 -13 l-79 0 3 -77 4 -78 157 -3 c122 -2 157 0 158
10 0 7 0 79 -1 161 l-2 147 81 0 81 0 1 -42 c1 -24 2 -59 3 -78 l2 -35 77 -3
c57 -2 77 0 78 10 0 7 1 78 2 158 l2 145 158 3 c115 2 157 6 158 15 1 6 2 41
3 77 l1 65 80 5 80 5 -3 78 -3 77 80 0 c58 0 81 4 82 13 1 6 2 42 3 79 l1 68
-83 0 -83 0 3 -77 3 -78 -159 0 -160 0 -4 78 -4 77 81 0 c57 0 81 4 82 13 1 6
1 42 -1 80 l-2 67 241 0 c186 0 241 3 242 13 0 6 1 78 2 159 l2 148 -84 0 -84
0 6 -68 c3 -38 2 -74 -2 -81 -5 -8 -32 -11 -82 -9 l-74 3 0 155 0 155 155 3
c94 1 157 7 161 13 3 6 4 42 1 80 l-5 69 82 0 c58 0 81 4 82 13 0 6 0 78 -1
160 l-2 147 81 0 c58 0 81 4 82 13 1 6 2 42 3 79 l1 68 -83 0 -83 0 3 -77 3
-78 -163 -3 -163 -3 3 -77 4 -77 77 -3 77 -3 1 -42 c0 -23 1 -58 2 -77 l2 -35
-160 0 -160 0 -3 157 -4 157 84 3 83 3 0 75 0 75 160 5 159 5 1 77 0 78 -243
0 -244 0 3 -157z"/>
<path d="M4992 10063 l4 -78 77 -3 c57 -2 77 0 78 10 1 7 2 43 3 80 l1 68 -83
0 -83 0 3 -77z"/>
<path d="M5650 10060 l0 -80 80 0 80 0 0 -80 0 -80 -160 0 -160 0 0 80 0 80
-91 0 -91 0 2 -147 c1 -82 2 -154 1 -161 -1 -10 -21 -12 -78 -10 l-78 3 0 77
0 78 -83 0 -84 0 3 -157 3 -158 -83 -3 -82 -3 3 -77 3 -77 -83 -3 -83 -3 1
-477 2 -477 -82 -3 -83 -3 6 -68 c3 -37 2 -73 -2 -80 -5 -8 -32 -11 -82 -9
l-74 3 0 77 0 78 -83 0 -84 0 2 -147 c1 -82 2 -154 1 -160 -1 -9 -24 -13 -82
-13 l-80 0 3 -77 3 -78 -84 -3 -84 -3 5 -67 c3 -37 3 -73 1 -79 -4 -10 -46
-13 -165 -13 l-159 0 3 -77 3 -78 -83 -3 -83 -3 3 -77 3 -77 -83 -3 -83 -3 3
-77 3 -77 -83 -3 -83 -3 3 -77 3 -77 -80 0 -79 0 -1 75 0 75 -80 5 -80 5 0 77
0 78 -83 0 -84 0 4 -157 3 -158 78 -3 77 -3 1 -42 c0 -23 2 -51 4 -62 3 -11 2
-28 -1 -38 -5 -16 -19 -17 -162 -15 l-156 3 -1 75 0 75 -80 5 -80 5 0 77 0 78
-82 0 -83 0 0 -245 0 -245 160 0 c121 0 160 -3 161 -12 1 -7 0 -43 0 -80 l-2
-67 82 -3 82 -3 -2 -157 -2 -158 160 0 161 0 1 55 c1 30 2 65 2 78 1 21 -3 22
-81 25 l-83 3 3 77 3 77 -83 3 -82 3 0 64 c0 95 0 95 86 95 52 0 74 -4 75 -12
1 -7 0 -43 0 -80 l-2 -68 81 0 c57 0 80 -4 81 -12 1 -7 0 -43 0 -80 l-2 -68
161 0 c121 0 160 -3 161 -12 1 -7 0 -43 0 -80 l-2 -68 81 0 c46 0 80 -4 81
-10 0 -5 1 -23 1 -40 0 -16 -1 -48 -1 -70 l-1 -40 -81 0 -80 0 3 78 3 77 -74
3 c-50 2 -77 -1 -82 -9 -4 -7 -8 -43 -8 -80 l0 -68 82 -3 c77 -3 81 -4 80 -25
0 -13 -1 -48 -2 -78 l-1 -55 -81 0 -80 0 3 78 3 77 -157 3 -157 3 -6 -24 c-4
-14 -6 -31 -5 -38 2 -8 2 -69 1 -136 l-1 -123 -75 0 c-70 0 -75 -1 -81 -24 -3
-13 -5 -30 -4 -37 2 -8 2 -33 1 -56 l-1 -43 -81 0 -80 0 2 158 2 157 -76 3
c-73 3 -77 2 -82 -21 -4 -13 -6 -31 -5 -38 2 -8 2 -33 1 -56 l-1 -43 -74 0
c-86 0 -84 2 -85 -97 l-1 -63 162 -2 163 -3 -3 -77 -3 -78 80 0 c58 0 81 -4
82 -12 1 -7 0 -43 0 -80 l-2 -67 83 -3 c78 -3 82 -4 81 -25 0 -13 -1 -48 -2
-78 l-1 -55 -75 0 c-70 0 -75 -1 -81 -24 -3 -13 -5 -30 -4 -37 2 -8 2 -33 1
-56 l-1 -43 -154 0 c-176 0 -164 7 -165 -98 l-1 -62 320 0 320 0 0 148 c0 81
4 153 8 160 7 9 46 12 163 10 l154 -3 -3 -78 -3 -77 160 0 c100 0 161 -4 162
-10 0 -5 1 -23 1 -40 0 -16 -1 -48 -1 -70 l-1 -40 -74 0 c-53 0 -75 -4 -79
-14 -3 -7 -6 -79 -6 -160 l-2 -146 81 0 80 0 0 68 c0 37 4 73 9 80 5 9 29 12
82 10 l74 -3 -3 -78 -3 -77 80 0 81 0 1 40 c0 22 1 54 1 70 0 17 -1 35 -1 40
-1 6 -35 10 -81 10 l-80 0 0 144 c0 79 3 151 6 160 5 13 22 16 80 16 l74 0 0
64 c0 96 0 96 86 96 l74 0 0 148 c0 81 4 153 8 160 7 9 62 12 243 10 l234 -3
-3 -77 -3 -78 160 0 161 0 0 64 c0 96 0 96 86 96 l74 0 1 55 c1 30 2 65 2 78
1 21 -3 22 -81 25 l-83 3 2 67 c0 37 1 73 0 80 -1 8 -24 12 -81 12 l-81 0 2
68 c0 37 1 73 0 80 -1 9 -39 12 -156 12 -154 0 -155 0 -161 -24 -3 -13 -5 -30
-4 -37 2 -8 2 -69 1 -136 l-1 -123 -240 0 -241 0 2 68 c0 37 1 73 0 80 -1 8
-23 12 -75 12 -86 0 -84 2 -85 -97 l-1 -62 82 -3 c78 -3 82 -4 81 -25 0 -13
-1 -84 -2 -158 l-1 -135 -160 0 -160 0 0 64 c0 96 0 96 86 96 l74 0 1 55 c1
30 2 65 2 78 1 21 -3 22 -81 25 l-82 3 0 224 c0 123 3 230 6 239 8 21 153 24
155 4 1 -7 0 -43 0 -80 l-2 -68 81 0 80 0 1 135 c1 74 2 145 2 158 1 21 -3 22
-81 25 l-83 3 3 77 3 77 -83 3 -83 3 3 77 3 77 -83 3 -83 3 2 67 c0 37 1 73 0
80 -1 8 -24 12 -81 12 l-80 0 0 85 0 85 80 0 c57 0 80 4 81 13 1 6 2 42 3 79
l1 68 -83 0 -83 0 3 -77 3 -78 -79 0 -80 0 -4 77 -4 77 84 3 83 3 -3 78 -3 77
80 0 c57 0 81 4 82 13 1 6 1 42 -1 80 l-2 67 81 0 c57 0 81 4 82 13 1 6 1 42
-1 80 l-2 67 161 0 161 0 1 -122 c1 -68 2 -139 3 -158 l2 -35 77 -3 c57 -2 77
0 78 10 1 7 2 42 3 78 l1 65 75 3 c41 2 77 8 81 13 3 6 4 42 1 80 l-5 69 162
0 161 0 1 -42 c1 -24 2 -59 3 -78 l2 -35 78 0 79 0 1 157 1 157 -80 3 -80 3 0
155 0 155 79 5 80 5 -3 158 -3 157 81 0 c58 0 81 4 82 13 0 6 1 77 2 157 l2
145 79 5 80 5 -3 158 -3 157 81 0 c58 0 81 4 82 13 0 6 1 78 2 159 l2 148 -83
0 -84 0 3 -157 3 -158 -80 0 -79 0 -3 157 -4 157 84 3 83 3 -3 78 -3 77 160 0
161 0 1 -42 c1 -24 2 -59 3 -78 l2 -35 87 -3 87 -3 0 -79 0 -80 -91 0 -91 0 4
-157 3 -158 88 -3 87 -3 0 -79 0 -80 80 0 80 0 0 -80 0 -80 -167 2 -168 3 0
77 0 78 -163 0 -163 0 3 -77 4 -78 77 -3 77 -3 1 -122 c0 -67 2 -131 4 -142
10 -48 -1 -55 -87 -55 l-81 0 5 -67 c3 -38 3 -74 1 -80 -4 -10 -46 -13 -165
-13 l-159 0 3 -77 4 -78 157 -3 157 -3 1 -42 c0 -23 1 -58 2 -77 l2 -35 -83
-3 -83 -3 3 -77 4 -77 80 0 79 0 -3 78 -3 77 80 0 81 0 1 -42 c0 -24 2 -52 4
-63 10 -48 -1 -55 -87 -55 l-80 0 4 -72 4 -73 327 -3 327 -2 0 75 0 75 -167 2
-168 3 -3 158 -4 157 91 0 91 0 0 -80 0 -80 240 0 240 0 0 160 0 160 -80 0
-80 0 0 -80 0 -80 -80 0 -80 0 0 80 0 80 -80 0 -80 0 0 80 0 79 -87 3 -87 3
-1 75 0 75 248 3 247 2 0 -80 0 -80 160 0 160 0 0 -160 0 -160 80 0 80 0 0
-80 0 -80 -80 0 -80 0 0 -80 0 -80 -80 0 -80 0 0 -80 0 -80 -34 0 -34 0 34
-34 34 -34 0 -126 0 -126 160 0 160 0 0 -80 0 -80 -80 0 -80 0 0 -165 0 -165
-80 0 -80 0 0 -80 0 -80 80 0 80 0 0 80 0 80 160 0 160 0 0 80 0 80 80 0 80 0
0 85 0 85 80 0 80 0 0 80 0 80 80 0 80 0 0 80 0 80 80 0 80 0 0 80 0 80 80 0
80 0 0 -240 0 -240 -160 0 -160 0 0 -165 0 -165 240 0 240 0 0 -80 0 -80 -80
0 -80 0 0 -80 0 -80 -240 0 -240 0 0 80 0 80 -80 0 -80 0 0 -80 0 -80 -80 0
-80 0 0 80 0 80 -80 0 -80 0 0 -80 0 -80 -80 0 -80 0 0 -320 0 -320 80 0 80 0
0 -80 0 -80 -160 0 -160 0 0 240 0 240 -80 0 -80 0 0 -80 0 -80 -80 0 -80 0 0
-80 0 -80 -80 0 -80 0 0 80 0 80 -171 0 -170 0 3 78 3 77 -83 3 -82 3 0 64 c0
95 0 95 86 95 52 0 74 -4 75 -12 1 -7 0 -43 0 -80 l-2 -68 81 0 80 0 1 125 c1
69 2 132 2 140 0 8 -1 21 -2 28 -2 19 -620 34 -632 16 -4 -7 -8 -43 -8 -81 l0
-68 79 0 c57 0 80 -4 81 -12 1 -7 0 -43 0 -80 l-2 -67 82 -3 82 -3 -2 -157 -2
-158 80 0 c58 0 81 -4 82 -12 0 -7 0 -79 -1 -160 l-1 -148 80 0 c47 0 81 -4
82 -10 0 -5 1 -23 1 -40 0 -16 -1 -48 -1 -70 l-1 -40 -74 0 c-53 0 -75 -4 -79
-14 -3 -7 -6 -79 -6 -160 l-2 -146 171 0 170 0 0 160 0 160 80 0 80 0 0 240 0
240 80 0 80 0 0 -80 0 -80 80 0 80 0 0 -80 0 -80 -80 0 -80 0 0 -160 0 -160
-80 0 -80 0 0 -160 0 -160 -325 0 -325 0 -6 -24 c-3 -13 -5 -30 -4 -37 2 -8 2
-69 1 -136 l-1 -123 -81 0 -80 0 1 148 c1 81 1 153 1 160 -1 9 -39 12 -156 12
-154 0 -155 0 -161 -24 -3 -13 -5 -30 -4 -37 2 -8 2 -33 1 -56 l-1 -43 -161 0
-160 0 3 78 3 77 -77 3 c-74 3 -78 2 -83 -21 -4 -13 -6 -31 -5 -38 2 -8 2 -69
1 -136 l-1 -123 -154 0 c-176 0 -164 7 -165 -98 l-1 -62 80 0 c57 0 80 -4 81
-12 1 -7 0 -43 0 -80 l-2 -68 81 0 80 0 0 64 c0 96 0 96 86 96 l74 0 0 64 c0
96 0 96 86 96 52 0 74 -4 75 -12 1 -7 0 -43 0 -80 l-2 -68 81 0 c46 0 80 -4
81 -10 0 -5 1 -23 1 -40 0 -16 -1 -120 -1 -230 l-1 -200 -81 0 -80 0 1 148 c1
81 1 153 1 160 -1 18 -147 17 -154 -2 -3 -7 -6 -79 -6 -159 l-2 -146 83 -3 83
-3 -3 -77 -3 -78 570 0 571 0 0 80 0 80 80 0 80 0 0 -80 0 -80 400 0 400 0 0
80 0 80 80 0 80 0 0 80 0 80 -80 0 -80 0 0 80 0 80 80 0 80 0 0 80 0 80 80 0
80 0 0 80 0 80 -80 0 -80 0 0 80 0 80 -80 0 -80 0 0 80 0 80 -160 0 -160 0 0
80 0 80 80 0 80 0 0 80 0 80 -80 0 -80 0 0 80 0 80 160 0 160 0 0 -160 0 -160
80 0 80 0 0 -80 0 -80 80 0 80 0 0 -80 0 -80 80 0 80 0 0 -240 0 -240 -80 0
-80 0 0 -80 0 -80 80 0 80 0 0 -160 0 -160 80 0 80 0 0 160 0 160 80 0 80 0 0
-160 0 -160 160 0 160 0 0 80 0 80 80 0 80 0 0 80 0 80 80 0 80 0 0 -80 0 -80
80 0 80 0 0 -80 0 -80 240 0 240 0 0 160 0 160 80 0 80 0 0 320 0 320 -80 0
-80 0 0 80 0 80 80 0 80 0 0 240 0 240 -80 0 -80 0 0 160 0 160 -160 0 -160 0
0 240 0 240 80 0 80 0 0 -160 0 -160 80 0 80 0 0 80 0 80 80 0 80 0 0 320 0
320 -80 0 -80 0 0 80 0 80 80 0 80 0 0 165 0 165 -80 0 -80 0 0 -85 0 -85 -80
0 -80 0 0 245 0 245 -80 0 -80 0 0 -80 0 -80 -80 0 -80 0 0 80 0 80 -80 0 -80
0 0 80 0 80 160 0 160 0 0 160 0 160 -80 0 -80 0 0 80 0 80 -240 0 -240 0 0
160 0 160 160 0 160 0 0 80 0 80 80 0 80 0 0 240 0 240 -80 0 -80 0 0 -80 0
-80 -80 0 -80 0 0 80 0 80 -240 0 -240 0 0 80 0 80 80 0 80 0 0 80 0 80 -80 0
-80 0 0 160 0 160 -80 0 -80 0 0 80 0 80 160 0 160 0 0 240 0 240 -160 0 -160
0 0 -80 0 -80 80 0 80 0 0 -80 0 -80 -160 0 -160 0 0 80 0 80 -160 0 -160 0 0
-80 0 -80 -80 0 -80 0 0 -80 0 -80 -80 0 -80 0 0 -80 0 -80 -80 0 -80 0 0 160
0 160 80 0 80 0 0 80 0 80 80 0 80 0 0 80 0 80 -160 0 -160 0 0 -160 0 -160
-80 0 -80 0 0 80 0 80 -80 0 -80 0 0 80 0 80 -80 0 -80 0 0 -80z m320 -320 l0
-80 -80 0 -80 0 0 80 0 80 80 0 80 0 0 -80z m960 -80 l0 -160 -80 0 -80 0 0
-80 0 -80 160 0 160 0 0 -80 0 -80 80 0 80 0 0 -80 0 -80 -80 0 -80 0 0 80 0
80 -80 0 -80 0 0 -80 0 -80 -80 0 -80 0 0 -80 0 -80 -80 0 -80 0 0 -160 0
-160 160 0 160 0 0 80 0 80 80 0 80 0 0 -80 0 -80 400 0 400 0 0 -80 0 -80
-320 0 -320 0 0 -80 0 -80 80 0 80 0 0 -160 0 -160 80 0 80 0 0 -160 0 -160
80 0 80 0 0 80 0 80 80 0 80 0 0 -160 0 -160 -80 0 -80 0 0 -80 0 -80 80 0 80
0 0 -80 0 -80 80 0 80 0 0 -245 0 -245 160 0 160 0 0 -80 0 -80 -80 0 -80 0 0
-80 0 -80 160 0 160 0 0 -160 0 -160 -80 0 -80 0 0 80 0 80 -160 0 -160 0 0
-240 0 -240 -80 0 -80 0 0 160 0 160 -80 0 -80 0 0 -80 0 -80 -80 0 -80 0 0
80 0 80 -80 0 -80 0 0 80 0 80 -80 0 -80 0 0 80 0 80 240 0 240 0 0 -80 0 -80
80 0 80 0 0 80 0 80 80 0 80 0 0 160 0 160 -80 0 -80 0 0 80 0 80 -80 0 -80 0
0 85 0 85 80 0 80 0 0 80 0 80 -80 0 -80 0 0 80 0 80 -80 0 -80 0 0 -80 0 -80
-80 0 -80 0 0 80 0 80 80 0 80 0 0 80 0 80 -160 0 -160 0 0 80 0 80 80 0 80 0
0 80 0 80 -160 0 -160 0 0 -80 0 -80 -80 0 -80 0 0 -80 0 -80 -80 0 -80 0 0
80 0 80 -80 0 -80 0 0 -80 0 -80 -160 0 -160 0 0 160 0 160 80 0 80 0 0 240 0
240 -160 0 -160 0 0 80 0 80 160 0 160 0 0 240 0 240 -80 0 -80 0 0 -160 0
-160 -80 0 -80 0 0 80 0 80 -80 0 -80 0 0 -80 0 -80 -80 0 -80 0 0 80 0 80 80
0 80 0 0 80 0 80 -160 0 -160 0 0 80 0 80 -80 0 -80 0 0 80 0 80 80 0 80 0 0
160 0 160 -80 0 -80 0 0 80 0 80 80 0 80 0 0 -80 0 -80 160 0 160 0 0 -320 0
-320 80 0 80 0 0 240 0 240 240 0 240 0 0 80 0 80 80 0 80 0 0 160 0 160 80 0
80 0 0 -160z m-1619 -1642 c0 -24 1 -59 2 -78 l2 -35 -79 0 -79 0 -4 63 c-7
91 -6 92 82 92 l75 0 1 -42z m-960 -160 c0 -24 2 -52 4 -63 10 -48 -1 -55 -86
-55 l-80 0 3 -77 3 -78 -80 0 -80 0 -3 158 -4 157 161 0 161 0 1 -42z m2099
-678 l0 -80 -80 0 -80 0 0 80 0 80 80 0 80 0 0 -80z m320 0 l0 -80 -80 0 -80
0 0 80 0 80 80 0 80 0 0 -80z m640 -325 l0 -85 -80 0 -80 0 0 85 0 85 80 0 80
0 0 -85z m-4177 -112 c0 -13 -1 -48 -2 -78 l-1 -55 -80 0 -80 0 0 64 c0 97 0
97 88 94 72 -3 76 -4 75 -25z m3537 -533 l0 -80 160 0 160 0 0 -160 0 -160
-80 0 -80 0 0 -80 0 -80 80 0 80 0 0 -80 0 -80 -160 0 -160 0 0 -80 0 -80 80
0 80 0 0 -80 0 -80 80 0 80 0 0 80 0 80 80 0 80 0 0 160 0 160 80 0 80 0 0
-80 0 -80 80 0 80 0 0 -80 0 -80 -160 0 -160 0 0 -160 0 -160 -160 0 -160 0 0
80 0 80 -240 0 -240 0 0 240 0 240 80 0 80 0 0 80 0 80 -80 0 -80 0 0 80 0 80
-80 0 -80 0 0 80 0 80 80 0 80 0 0 -80 0 -80 160 0 160 0 0 80 0 80 -80 0 -80
0 0 80 0 80 80 0 80 0 0 -80z m-3698 -322 l-3 -78 80 0 c58 0 81 -4 82 -12 1
-7 0 -43 0 -80 l-2 -68 81 0 c57 0 80 -4 81 -12 0 -7 0 -79 -1 -160 l-1 -147
83 -3 c78 -3 82 -4 81 -25 0 -13 -1 -48 -2 -78 l-1 -55 -160 0 -161 0 2 68 c0
37 1 73 0 80 -1 9 -56 12 -241 12 l-240 0 0 64 c0 96 0 96 86 96 l74 0 0 224
c0 123 3 232 6 241 5 13 20 15 83 13 l76 -3 -3 -77z m1599 -248 c0 -5 1 -23 1
-40 0 -16 -1 -48 -1 -70 l-1 -40 -80 0 -80 0 0 64 c0 96 0 96 86 96 42 0 74
-4 75 -10z m819 -70 l0 -80 -90 0 -90 0 0 64 c0 97 -1 96 96 96 l84 0 0 -80z
m2560 -240 l0 -160 80 0 80 0 0 80 0 80 80 0 80 0 0 -80 0 -80 80 0 80 0 0
-240 0 -240 -80 0 -80 0 0 -160 0 -160 -80 0 -80 0 0 -160 0 -160 80 0 80 0 0
80 0 80 80 0 80 0 0 -160 0 -160 -80 0 -80 0 0 -80 0 -80 -160 0 -160 0 0 80
0 80 -80 0 -80 0 0 80 0 80 -80 0 -80 0 0 -80 0 -80 -80 0 -80 0 0 -80 0 -80
-80 0 -80 0 0 80 0 80 -80 0 -80 0 0 80 0 80 80 0 80 0 0 80 0 80 240 0 240 0
0 -80 0 -80 80 0 80 0 0 240 0 240 80 0 80 0 0 80 0 80 -80 0 -80 0 0 80 0 80
80 0 80 0 0 -80 0 -80 80 0 80 0 0 240 0 240 -80 0 -80 0 0 -80 0 -80 -80 0
-80 0 0 80 0 80 -80 0 -80 0 0 -80 0 -80 -80 0 -80 0 0 160 0 160 80 0 80 0 0
80 0 80 80 0 80 0 0 -160z m-480 -240 l0 -80 -80 0 -80 0 0 80 0 80 80 0 80 0
0 -80z m-1440 -160 l0 -80 -80 0 -80 0 0 -80 0 -80 80 0 80 0 0 -80 0 -80
-160 0 -160 0 0 160 0 160 80 0 80 0 0 80 0 80 80 0 80 0 0 -80z m1120 -160
l0 -80 -80 0 -80 0 0 -80 0 -80 80 0 80 0 0 -160 0 -160 -80 0 -80 0 0 160 0
160 -80 0 -80 0 0 80 0 80 -80 0 -80 0 0 80 0 80 240 0 240 0 0 -80z m640
-160 l0 -240 -240 0 -240 0 0 240 0 240 240 0 240 0 0 -240z m-2240 -160 l0
-80 80 0 80 0 0 -160 0 -160 80 0 80 0 0 -80 0 -80 240 0 240 0 0 -80 0 -80
-240 0 -240 0 0 80 0 80 -240 0 -240 0 0 160 0 160 80 0 80 0 0 80 0 80 -170
0 -170 0 0 64 c0 102 -11 96 176 96 l164 0 0 -80z m-337 -107 c0 -13 -1 -84
-2 -158 l-1 -135 -160 0 -160 0 0 64 c0 96 0 96 86 96 l74 0 0 64 c0 97 0 97
88 94 72 -3 76 -4 75 -25z m-482 -145 c0 -7 0 -79 -1 -160 l-1 -148 160 0
c100 0 161 -4 162 -10 0 -5 1 -23 1 -40 0 -16 -1 -48 -1 -70 l-1 -40 -240 0
-240 0 0 224 c0 123 3 231 6 240 8 21 154 24 155 4z m1619 -68 l0 -80 -80 0
-80 0 0 80 0 80 80 0 80 0 0 -80z"/>
<path d="M5650 9100 l0 -80 80 0 80 0 0 80 0 80 -80 0 -80 0 0 -80z"/>
<path d="M6290 9100 l0 -80 80 0 80 0 0 -80 0 -80 80 0 80 0 0 80 0 80 80 0
80 0 0 80 0 80 -80 0 -80 0 0 -80 0 -80 -80 0 -80 0 0 80 0 80 -80 0 -80 0 0
-80z"/>
<path d="M6930 8300 l0 -80 -160 0 -160 0 0 -80 0 -80 80 0 80 0 0 -80 0 -80
80 0 80 0 0 -80 0 -80 80 0 80 0 0 160 0 160 80 0 80 0 0 80 0 80 -80 0 -80 0
0 80 0 80 -80 0 -80 0 0 -80z m160 -160 l0 -80 -80 0 -80 0 0 80 0 80 80 0 80
0 0 -80z"/>
<path d="M6450 7660 l0 -80 80 0 80 0 0 80 0 80 -80 0 -80 0 0 -80z"/>
<path d="M7570 6050 l0 -80 80 0 80 0 0 80 0 80 -80 0 -80 0 0 -80z"/>
<path d="M3077 5633 c-3 -10 -6 -46 -6 -80 l-1 -63 80 0 80 0 1 55 c1 30 2 65
2 78 1 21 -3 22 -75 25 -66 2 -77 0 -81 -15z"/>
<path d="M7570 4610 l0 -80 80 0 80 0 0 80 0 80 -80 0 -80 0 0 -80z"/>
<path d="M7570 9580 l0 -560 560 0 560 0 0 560 0 560 -560 0 -560 0 0 -560z
m960 0 l0 -400 -400 0 -400 0 0 400 0 400 400 0 400 0 0 -400z"/>
<path d="M7890 9580 l0 -240 240 0 240 0 0 240 0 240 -240 0 -240 0 0 -240z"/>
<path d="M8210 8540 l0 -160 80 0 80 0 0 80 0 80 80 0 80 0 0 80 0 80 -160 0
-160 0 0 -160z"/>
<path d="M2112 7823 l3 -398 158 -3 c121 -2 157 0 158 10 1 7 2 43 3 80 l1 67
-80 3 -80 3 0 155 0 155 75 3 c41 2 77 8 81 13 3 6 4 42 1 80 l-5 69 82 0 c57
0 81 4 82 13 1 6 2 42 3 79 l1 68 -83 0 -83 0 3 -77 3 -78 -80 0 -80 0 0 77 0
78 -83 0 -83 0 3 -397z"/>
<path d="M8050 8140 l0 -80 80 0 80 0 0 -80 0 -80 80 0 80 0 0 -80 0 -80 80 0
80 0 0 -80 0 -80 80 0 80 0 0 240 0 240 -80 0 -80 0 0 80 0 80 -240 0 -240 0
0 -80z m480 -160 l0 -80 -80 0 -80 0 0 80 0 80 80 0 80 0 0 -80z"/>
<path d="M3072 7503 l4 -78 79 0 79 0 1 77 0 78 -83 0 -83 0 3 -77z"/>
<path d="M4672 7343 l3 -78 -243 -3 -243 -2 3 -78 4 -77 240 0 239 0 -3 78 -3
77 79 0 79 0 5 52 c4 42 11 57 37 80 l31 28 -116 0 -115 0 3 -77z"/>
<path d="M3552 7023 l4 -78 157 -3 c122 -2 157 0 158 10 1 7 2 43 3 80 l1 68
-163 0 -163 0 3 -77z"/>
<path d="M4672 7033 c3 -38 3 -74 1 -80 -3 -9 -30 -13 -84 -13 l-79 0 0 -85 0
-85 -474 0 c-540 0 -484 11 -485 -97 l-1 -63 80 0 c57 0 80 -4 81 -12 1 -7 0
-43 0 -80 l-2 -68 81 0 c57 0 80 -4 81 -12 1 -7 0 -43 0 -80 l-2 -68 81 0 c57
0 80 -4 81 -12 0 -7 0 -115 -1 -240 l-1 -228 80 0 81 0 0 144 c0 79 3 151 6
160 5 14 29 16 160 16 l154 0 1 40 c0 22 1 54 1 70 0 17 -1 35 -1 40 -1 6 -62
10 -161 10 l-160 0 0 64 c0 102 -10 96 166 96 l154 0 0 64 c0 96 0 96 86 96
l74 0 0 64 c0 96 0 96 86 96 l74 0 0 165 0 165 -81 0 -82 0 5 -67z"/>
<path d="M5930 6315 l-23 -25 31 0 c27 0 32 4 32 25 0 14 -4 25 -8 25 -5 0
-19 -11 -32 -25z"/>
<path d="M2276 6273 c-2 -10 -5 -46 -5 -80 l-1 -62 82 -3 83 -3 -3 -77 -3 -78
80 0 81 0 1 40 c0 22 1 54 1 70 0 17 -1 35 -1 40 -1 6 -35 10 -81 10 l-81 0 2
68 c0 37 1 73 0 80 -1 8 -23 12 -75 12 -63 0 -75 -3 -80 -17z"/>
<path d="M5490 6125 l0 -155 80 0 80 0 0 155 0 155 -80 0 -80 0 0 -155z"/>
<path d="M2116 5313 c-2 -10 -5 -46 -5 -80 l-1 -63 80 0 80 0 1 40 c0 22 1 54
1 70 0 17 -1 35 -1 40 -1 6 -33 10 -75 10 -63 0 -75 -3 -80 -17z"/>
<path d="M4196 5313 c-2 -10 -5 -46 -5 -80 l-1 -62 82 -3 c78 -3 82 -4 81 -25
0 -13 -1 -48 -2 -78 l-1 -55 -74 0 c-53 0 -75 -4 -79 -14 -3 -7 -6 -79 -6
-160 l-2 -146 81 0 80 0 0 64 c0 104 -21 96 246 96 l234 0 1 55 c1 30 2 65 2
78 1 21 -3 22 -81 25 l-83 3 2 67 c0 37 1 73 0 80 -1 9 -40 12 -161 12 l-161
0 2 68 c0 37 1 73 0 80 -1 8 -23 12 -75 12 -63 0 -75 -3 -80 -17z"/>
<path d="M4836 5153 c-2 -10 -5 -46 -5 -80 l-1 -63 80 0 80 0 1 40 c0 22 1 54
1 70 0 17 -1 35 -1 40 -1 6 -33 10 -75 10 -63 0 -75 -3 -80 -17z"/>
<path d="M3077 4993 c-3 -10 -6 -46 -6 -80 l-1 -63 80 0 80 0 1 55 c1 30 2 65
2 78 1 21 -3 22 -75 25 -66 2 -77 0 -81 -15z"/>
<path d="M2116 4675 c-3 -8 -6 -260 -6 -560 l0 -545 560 0 560 0 1 520 c0 286
1 534 1 550 0 17 -1 35 -1 40 -1 7 -193 10 -555 10 -483 0 -555 -2 -560 -15z
m955 -155 c0 -5 1 -23 1 -40 0 -16 -1 -192 -1 -390 l-1 -360 -400 0 -400 0 0
384 c0 211 3 391 6 400 5 14 50 16 400 16 255 0 394 -4 395 -10z"/>
<path d="M2437 4356 c-3 -8 -6 -116 -7 -240 l-1 -226 241 0 240 0 1 200 c0
110 1 214 1 230 0 17 -1 35 -1 40 -1 6 -86 10 -235 10 -192 0 -235 -3 -239
-14z"/>
<path d="M3397 4196 c-3 -7 -6 -79 -6 -160 l-2 -146 81 0 c57 0 80 -4 81 -12
0 -7 0 -79 -1 -160 l-1 -148 80 0 81 0 0 68 c0 37 4 73 8 80 7 9 46 12 163 10
l154 -3 -3 -77 -3 -78 80 0 81 0 1 55 c1 30 2 65 2 78 1 21 -3 22 -81 25 l-83
3 2 67 c0 37 1 73 0 80 -1 8 -24 12 -82 12 l-80 0 3 78 3 77 -163 3 -163 2 2
68 c0 37 1 73 0 80 -1 18 -147 17 -154 -2z"/>
<path d="M4959 3093 c-1 -5 0 -18 1 -30 1 -23 -1 -23 -104 -23 -88 0 -106 -3
-106 -15 0 -12 13 -15 59 -15 64 0 65 -1 75 -42 6 -28 6 -28 -49 -28 l-55 0 0
-160 c0 -134 2 -160 15 -160 12 0 15 25 17 143 l3 142 160 0 160 0 0 -125 0
-125 -42 -3 c-29 -2 -43 -8 -43 -18 0 -10 13 -14 50 -14 75 0 81 15 78 181
l-3 134 -52 3 c-56 3 -59 6 -43 46 9 24 14 26 70 26 47 0 60 3 60 15 0 12 -18
15 -99 15 l-99 0 -12 30 c-11 27 -38 42 -41 23z m91 -87 c0 -1 -5 -17 -11 -35
-10 -29 -14 -31 -60 -31 -44 0 -51 3 -59 26 -16 42 -13 44 60 44 39 0 70 -2
70 -4z"/>
<path d="M5524 3094 c-6 -3 -9 -16 -6 -29 4 -24 4 -24 -89 -27 l-94 -3 -5
-155 c-5 -131 -9 -162 -27 -203 -20 -42 -20 -49 -6 -54 17 -7 30 10 51 67 7
19 16 99 19 178 l6 142 189 0 c160 0 188 2 188 15 0 12 -16 15 -88 15 l-88 0
-11 30 c-11 29 -17 33 -39 24z"/>
<path d="M5862 3033 c-31 -68 -42 -211 -23 -290 17 -67 50 -133 67 -133 18 0
18 1 -12 84 -44 119 -38 225 21 379 5 12 2 17 -9 17 -11 0 -27 -21 -44 -57z"/>
<path d="M7005 3073 c59 -139 64 -279 15 -404 -12 -28 -19 -54 -16 -57 23 -22
69 71 88 180 18 101 -31 298 -74 298 -15 0 -18 -4 -13 -17z"/>
<path d="M3732 2983 l3 -88 78 -3 78 -3 -3 -27 c-3 -25 -6 -27 -53 -27 -38 0
-49 3 -47 14 2 8 -2 17 -9 21 -7 5 -27 -14 -54 -54 -47 -69 -43 -97 8 -48 30
29 39 32 95 32 59 0 62 -1 62 -25 0 -23 -3 -24 -72 -27 -40 -2 -73 -7 -73 -13
0 -5 33 -11 73 -13 l72 -3 0 -29 0 -30 -105 0 c-87 0 -105 -3 -105 -15 0 -13
29 -15 220 -13 138 2 220 7 220 13 0 6 -40 11 -95 13 l-95 3 0 29 0 30 80 0
c64 0 80 3 80 15 0 12 -16 15 -80 15 -79 0 -80 0 -80 25 0 25 1 25 84 25 49 0
88 4 91 11 11 16 5 18 -85 21 -84 3 -85 4 -88 31 l-3 27 75 0 76 0 0 90 0 90
-175 0 -176 0 3 -87z m211 58 c100 -1 107 -2 107 -21 0 -19 -7 -20 -140 -20
-132 0 -140 1 -140 19 0 19 21 30 50 25 8 -1 63 -3 123 -3z m102 -96 c0 -19
-8 -20 -137 -23 l-138 -3 0 26 0 26 138 -3 c129 -3 137 -4 137 -23z"/>
<path d="M4272 2983 l3 -88 78 -3 78 -3 -3 -27 c-2 -21 -9 -28 -32 -30 -39 -5
-78 6 -70 19 4 6 1 15 -7 19 -9 6 -23 -6 -46 -40 -18 -27 -37 -51 -43 -55 -15
-9 -12 -35 4 -35 8 0 24 14 36 30 20 28 25 30 91 30 67 0 70 -1 67 -22 -3 -21
-10 -24 -71 -28 -91 -7 -91 -24 1 -28 l72 -3 0 -29 0 -30 -105 0 c-87 0 -105
-3 -105 -15 0 -13 31 -15 220 -15 189 0 220 2 220 15 0 12 -17 15 -95 15 l-95
0 0 30 0 30 80 0 c64 0 80 3 80 15 0 12 -16 15 -80 15 -78 0 -80 1 -80 25 0
24 2 24 87 27 58 2 88 7 91 16 3 9 -19 12 -87 12 l-91 0 0 30 c0 29 1 30 53
31 101 2 92 -6 95 92 l3 87 -176 0 -176 0 3 -87z m308 36 c0 -18 -8 -19 -135
-19 -133 0 -135 0 -135 23 0 22 1 22 135 19 126 -3 135 -4 135 -23z m0 -74 l0
-25 -135 0 -135 0 0 25 0 25 135 0 135 0 0 -25z"/>
<path d="M6532 2983 l3 -88 78 -3 78 -3 -3 -27 c-3 -25 -6 -27 -53 -27 -38 0
-49 3 -47 14 2 8 -2 17 -9 21 -7 5 -27 -14 -54 -54 -47 -69 -43 -97 8 -48 30
29 39 32 95 32 59 0 62 -1 62 -25 0 -23 -3 -24 -72 -27 -40 -2 -73 -7 -73 -13
0 -5 33 -11 73 -13 l72 -3 0 -29 0 -30 -105 0 c-87 0 -105 -3 -105 -15 0 -13
29 -15 220 -13 138 2 220 7 220 13 0 6 -40 11 -95 13 l-95 3 0 29 0 30 80 0
c64 0 80 3 80 15 0 12 -16 15 -80 15 -79 0 -80 0 -80 25 0 25 1 25 84 25 49 0
88 4 91 11 11 16 5 18 -85 21 -84 3 -85 4 -88 31 l-3 27 75 0 76 0 0 90 0 90
-175 0 -176 0 3 -87z m211 58 c100 -1 107 -2 107 -21 0 -19 -7 -20 -140 -20
-132 0 -140 1 -140 19 0 19 21 30 50 25 8 -1 63 -3 123 -3z m102 -96 c0 -19
-8 -20 -137 -23 l-138 -3 0 26 0 26 138 -3 c129 -3 137 -4 137 -23z"/>
<path d="M6060 3015 c0 -27 -9 -32 -27 -14 -12 12 -33 4 -33 -11 0 -5 9 -12
20 -15 26 -8 26 -22 -1 -30 -11 -4 -18 -12 -16 -18 5 -13 11 -13 40 -2 13 6
17 2 17 -19 0 -16 6 -26 15 -26 9 0 15 9 15 25 0 28 3 29 30 15 13 -7 19 -6
23 5 4 8 -2 16 -14 20 -25 8 -24 17 2 33 16 10 18 17 10 25 -8 8 -14 8 -23 -1
-19 -19 -28 -14 -28 13 0 16 -6 25 -15 25 -9 0 -15 -9 -15 -25z"/>
<path d="M6300 3015 c0 -27 -9 -32 -27 -14 -12 12 -33 4 -33 -11 0 -5 9 -12
20 -15 26 -8 26 -22 -1 -30 -11 -4 -18 -12 -16 -18 5 -13 11 -13 40 -2 13 6
17 2 17 -19 0 -16 6 -26 15 -26 9 0 15 9 15 25 0 28 3 29 30 15 13 -7 19 -6
23 5 4 8 -2 16 -14 20 -25 8 -24 17 2 33 16 10 18 17 10 25 -8 8 -14 8 -23 -1
-19 -19 -28 -14 -28 13 0 16 -6 25 -15 25 -9 0 -15 -9 -15 -25z"/>
<path d="M5527 2973 c-4 -3 -7 -42 -7 -85 l0 -78 -50 0 -50 0 0 -100 c0 -83 3
-100 15 -100 9 0 18 7 21 15 5 12 27 15 110 15 86 0 104 -3 104 -15 0 -8 7
-15 15 -15 12 0 15 18 15 100 l0 99 -67 3 -68 3 0 40 0 40 88 3 c68 2 87 6 87
17 0 12 -18 15 -90 15 -89 0 -90 0 -90 25 0 24 -18 34 -33 18z m143 -243 l0
-50 -105 0 -105 0 0 50 0 50 105 0 105 0 0 -50z"/>
<path d="M4877 2845 c-31 -27 -45 -45 -37 -50 6 -4 17 -1 25 5 13 11 15 6 16
-31 1 -24 0 -54 -1 -66 -1 -22 1 -23 95 -23 l96 0 -3 62 -3 62 -74 -1 c-98 -2
-112 6 -72 39 23 20 27 29 18 36 -8 7 -26 -3 -60 -33z m163 -105 l0 -40 -49 0
c-67 0 -81 7 -81 39 0 38 5 41 72 41 l58 0 0 -40z"/>
<path d="M5024 2879 c-7 -12 64 -89 83 -89 25 0 12 26 -31 63 -28 23 -47 33
-52 26z"/>
<path d="M4160 987 c0 -5 24 -34 54 -65 l54 -56 56 57 c31 32 56 61 56 65 0 4
-50 7 -110 7 -61 0 -110 -4 -110 -8z"/>
<path d="M3590 1090 l0 -80 80 0 81 0 -3 78 -3 77 -77 3 -78 3 0 -81z"/>
<path d="M5510 835 l0 -55 50 0 c28 0 50 3 50 7 0 3 -12 21 -26 40 -21 27 -23
37 -14 48 11 13 7 15 -24 15 l-36 0 0 -55z"/>
</g>
</svg>
