<?xml version="1.0" standalone="no"?>
<!DOCTYPE svg PUBLIC "-//W3C//DTD SVG 20010904//EN"
 "http://www.w3.org/TR/2001/REC-SVG-20010904/DTD/svg10.dtd">
<svg version="1.0" xmlns="http://www.w3.org/2000/svg"
 width="713.000000pt" height="727.000000pt" viewBox="0 0 713.000000 727.000000"
 preserveAspectRatio="xMidYMid meet">

<g transform="translate(0.000000,727.000000) scale(0.100000,-0.100000)"
fill="#000000" stroke="none">
<path d="M246 6953 c-3 -4 -6 -255 -6 -559 l0 -554 23 -5 c12 -3 263 -5 557
-3 l535 3 3 556 2 557 -25 6 c-33 8 -1081 7 -1089 -1z m937 -163 c16 0 17 -24
15 -395 l-3 -396 -385 0 c-212 0 -391 1 -397 1 -10 0 -13 85 -13 393 0 217 2
396 4 398 3 3 529 2 779 -1z"/>
<path d="M565 6632 c-3 -3 -5 -110 -5 -238 l0 -234 23 -5 c13 -4 120 -5 238
-3 l214 3 3 236 2 237 -26 6 c-31 8 -441 6 -449 -2z"/>
<path d="M2324 6946 c-2 -6 -5 -78 -6 -160 l-3 -149 -77 1 -77 1 -3 -81 -3
-81 -65 -2 c-36 0 -71 1 -77 3 -9 3 -13 28 -13 81 l0 77 78 0 77 -1 3 77 3 77
-33 6 c-18 3 -53 4 -78 2 l-45 -5 -5 -77 -5 -77 -65 -2 c-36 -1 -71 0 -77 2
-9 3 -13 28 -13 78 l0 73 -32 6 c-18 3 -53 4 -78 2 l-45 -5 -3 -153 c-2 -115
1 -155 10 -161 7 -5 36 -8 63 -7 92 3 86 8 83 -76 l-3 -75 -155 -3 -155 -2 -3
-74 c-3 -87 1 -92 73 -90 92 3 86 8 83 -77 l-3 -76 -75 -1 -75 -2 -5 -158 -5
-158 -155 -2 -155 -2 -3 -74 c-3 -87 1 -92 73 -90 92 3 86 8 83 -76 l-3 -76
-145 0 c-80 0 -151 0 -157 0 -9 1 -13 23 -13 76 l0 74 -35 7 c-20 3 -49 4 -65
0 -53 -10 -60 -1 -60 80 l0 73 -34 7 c-19 3 -90 4 -158 2 l-123 -3 -3 -74 c-3
-87 1 -92 73 -90 92 3 86 8 83 -76 l-3 -75 -155 -3 -155 -2 -3 -77 c-3 -94
-11 -91 179 -86 l134 3 3 81 3 80 67 -2 c37 -1 73 -3 80 -3 10 -1 12 -84 10
-398 l-3 -396 -75 -1 -75 -1 -3 -77 c-3 -94 -11 -91 179 -86 l134 3 5 159 5
158 75 2 75 1 3 81 3 80 77 0 77 -1 3 77 3 77 -33 6 c-18 3 -53 4 -78 2 l-45
-5 -5 -76 -5 -77 -68 -3 c-37 -1 -72 1 -77 4 -7 4 -10 63 -8 159 l3 152 155 2
155 2 3 81 3 80 77 0 77 -1 5 79 5 78 75 2 75 1 3 241 2 240 68 -2 c37 -1 73
-3 80 -3 8 -1 12 -23 12 -76 0 -86 2 -88 100 -82 l55 3 3 156 3 157 -36 7
c-20 3 -49 4 -65 0 -54 -10 -60 -2 -60 83 l0 76 147 -2 c82 -1 154 -3 161 -3
10 0 12 -67 10 -316 l-3 -316 -75 -1 -75 -2 -5 -78 -5 -78 -157 0 -158 0 -2
-241 -3 -241 -75 -1 -75 -1 -5 -79 -5 -79 -77 1 -77 1 -3 -82 -3 -81 -77 1
-78 2 0 -79 c0 -97 -8 -93 181 -88 l134 3 3 161 2 160 68 -2 c37 -1 73 -3 80
-3 8 -1 12 -23 12 -76 0 -86 2 -88 100 -82 l55 3 5 157 5 158 155 2 155 2 5
79 5 78 75 2 75 1 3 81 3 80 77 0 77 -1 3 77 3 77 -33 6 c-18 3 -53 4 -78 2
l-45 -5 -5 -76 -5 -77 -145 0 c-80 0 -151 0 -157 0 -9 1 -13 24 -13 79 l0 78
78 0 77 -1 3 80 3 80 237 0 237 0 3 157 3 157 -33 6 c-18 3 -53 4 -78 2 l-45
-5 -5 -77 -5 -78 -68 -1 c-37 -1 -72 1 -78 4 -6 4 -8 66 -7 159 l3 152 155 2
155 2 3 81 3 80 77 0 77 -1 3 161 2 160 78 0 77 -1 3 77 3 76 -28 6 c-16 4
-52 6 -80 5 l-52 -2 -3 -79 -3 -79 -157 0 -158 0 0 -79 c0 -89 4 -94 83 -90
82 5 78 9 75 -75 l-3 -76 -145 0 c-80 0 -151 0 -157 0 -10 1 -13 40 -13 159
l0 158 78 0 77 -1 5 78 5 78 155 2 155 2 3 76 c3 76 3 77 -24 83 -46 12 -445
5 -450 -8z"/>
<path d="M3124 6951 c-2 -2 -4 -37 -4 -77 0 -85 3 -87 100 -81 l55 3 3 76 3
77 -33 6 c-34 6 -116 3 -124 -4z"/>
<path d="M3774 6945 c-3 -7 -4 -43 -2 -81 l3 -69 78 -2 77 -1 0 79 c0 43 -3
80 -7 80 -44 8 -146 4 -149 -6z"/>
<path d="M4256 6952 c-3 -3 -6 -74 -6 -159 l0 -153 -65 -1 c-36 -1 -71 -2 -77
-3 -9 -1 -15 -27 -18 -81 l-5 -79 -68 -1 c-40 0 -73 5 -78 12 -6 6 -9 41 -7
78 l3 68 78 -1 77 -1 0 79 c0 53 -4 79 -12 82 -7 3 -42 4 -78 4 l-65 -1 -3
-77 -3 -77 -147 -3 c-81 -2 -153 1 -159 6 -8 5 -13 33 -13 76 0 45 -4 69 -12
72 -7 3 -44 5 -83 4 l-70 -1 -5 -159 -5 -159 -65 -2 c-36 0 -71 1 -77 3 -9 3
-13 28 -13 78 l0 73 -32 6 c-18 3 -53 4 -78 2 l-45 -5 -5 -157 -5 -157 -75 -1
-75 -2 -5 -78 -5 -79 -75 -2 -75 -1 -5 -478 -5 -479 -75 -1 -75 -2 -5 -79 -5
-79 -65 -2 c-36 0 -71 1 -77 3 -9 3 -13 28 -13 77 0 72 -1 74 -28 79 -15 4
-51 6 -79 5 l-53 -2 -2 -160 -3 -160 -75 -1 -75 -1 -5 -78 -5 -79 -75 -1 -75
-2 -5 -78 -5 -78 -155 -2 -155 -2 -5 -78 -5 -79 -75 -1 -75 -2 -5 -79 -5 -79
-77 1 -77 1 -3 -81 -3 -80 -75 -1 -75 -2 -5 -78 -5 -79 -65 -2 c-36 -1 -71 0
-77 2 -9 3 -13 28 -13 78 l0 73 -35 7 c-20 3 -49 4 -65 0 -53 -10 -60 -1 -60
80 l0 73 -32 6 c-18 3 -53 4 -78 2 l-45 -5 -3 -153 c-2 -115 1 -155 10 -161 7
-5 36 -8 63 -7 92 3 86 8 83 -77 l-3 -76 -145 1 c-80 0 -151 0 -157 0 -9 1
-13 23 -13 76 l0 74 -35 7 c-20 3 -49 4 -65 0 -53 -10 -60 -1 -60 80 l0 73
-32 6 c-18 3 -53 4 -78 2 l-45 -5 0 -243 0 -244 157 -3 157 -3 3 -77 3 -77 77
-3 77 -3 3 -157 3 -157 158 -3 157 -3 0 81 0 80 160 0 160 0 0 -80 0 -80 -80
0 -80 0 0 -80 0 -80 -160 0 -160 0 0 -160 0 -160 -80 0 -80 0 0 -80 0 -80 -80
0 -80 0 0 160 0 160 80 0 80 0 0 80 0 80 -80 0 -80 0 0 80 0 80 -80 0 -81 0 3
-77 3 -78 78 -3 77 -3 0 -79 0 -80 -80 0 -80 0 0 -80 0 -80 -80 0 -81 0 3 -77
3 -78 157 -3 157 -3 3 -77 3 -77 77 -3 77 -3 3 -77 3 -77 78 -3 77 -3 0 -79 0
-80 -80 0 -80 0 0 -80 0 -80 -160 0 -161 0 3 -77 3 -78 317 -3 318 -2 0 160 0
160 160 0 160 0 0 -80 0 -80 -80 0 -81 0 3 -77 3 -78 77 -3 78 -3 0 81 0 80
160 0 160 0 0 -80 0 -80 -80 0 -81 0 3 -158 3 -157 78 -3 77 -3 0 81 0 80 80
0 79 0 3 -77 3 -78 78 -3 77 -3 0 81 0 80 -80 0 -80 0 0 160 0 160 80 0 80 0
0 80 0 80 80 0 80 0 0 160 0 160 240 0 239 0 3 -77 3 -78 158 -3 157 -3 0 81
0 80 80 0 80 0 0 80 0 80 80 0 79 0 3 -158 3 -157 78 -3 77 -3 0 -79 0 -80
-80 0 -81 0 3 -157 3 -158 162 -3 162 -2 3 157 3 158 78 3 77 3 0 239 0 240
80 0 79 0 3 -77 3 -78 78 -3 77 -3 0 -79 0 -79 -77 -3 -78 -3 -3 -157 -3 -157
-77 -3 -77 -3 -3 -157 -3 -158 -324 0 -325 0 0 -160 0 -161 -77 3 -78 3 -3
158 -3 157 -159 0 -160 0 0 -80 0 -81 -157 3 -158 3 -3 78 -3 77 81 0 80 0 0
80 0 80 240 0 240 0 0 80 0 80 80 0 80 0 0 80 0 80 -80 0 -80 0 0 -80 0 -81
-77 3 -78 3 -3 78 -3 77 -159 0 -160 0 0 80 0 80 -80 0 -81 0 3 -77 3 -78 78
-3 77 -3 0 -79 0 -80 -80 0 -80 0 0 -160 0 -160 -80 0 -80 0 0 -160 0 -160
-160 0 -161 0 3 -77 3 -78 78 -3 77 -3 0 -80 0 -80 -157 3 -158 3 -3 78 -3 77
-80 0 -80 0 3 -158 3 -157 77 -3 77 -3 3 -157 3 -157 78 -3 77 -3 0 81 0 80
160 0 159 0 3 -77 3 -78 78 -3 77 -3 0 81 0 80 80 0 79 0 3 -77 3 -78 562 -3
562 -2 3 77 3 78 77 3 77 3 3 -78 3 -78 398 -3 397 -2 0 80 0 80 80 0 80 0 0
80 0 80 -80 0 -80 0 0 80 0 80 80 0 79 0 3 78 3 77 78 3 77 3 0 79 0 79 -77 3
-78 3 -3 77 -3 77 -77 3 -77 3 -3 78 -3 77 -159 0 -160 0 0 80 0 80 80 0 80 0
0 80 0 80 -80 0 -81 0 3 78 3 77 157 3 157 3 3 -158 3 -158 77 -3 77 -3 3 -77
3 -77 77 -3 77 -3 3 -77 3 -77 78 -3 77 -3 0 -239 0 -239 -77 -3 -78 -3 0 -75
0 -75 77 -3 77 -3 3 -157 3 -157 77 -3 77 -3 3 158 3 158 77 3 77 3 3 -158 3
-158 158 -3 157 -3 0 81 0 80 80 0 80 0 0 80 0 80 80 0 79 0 3 -77 3 -78 77
-3 77 -3 3 -77 3 -77 238 -3 237 -2 0 160 0 160 80 0 80 0 0 320 0 319 -77 3
-78 3 -3 78 -3 77 81 0 80 0 0 240 0 240 -80 0 -80 0 0 160 0 159 -157 3 -158
3 0 235 0 235 77 3 77 3 3 -158 3 -158 77 -3 77 -3 3 78 3 78 78 3 77 3 0 319
0 319 -77 3 -78 3 0 75 0 75 78 3 77 3 0 163 c0 122 -3 165 -12 168 -7 3 -42
4 -78 4 l-65 -1 -3 -88 -3 -88 -77 3 -77 3 -3 240 c-1 154 -6 241 -13 246 -6
3 -41 6 -77 5 l-67 -1 -5 -80 -5 -80 -75 0 -75 0 -3 -248 -2 -248 -78 3 -77 3
-3 77 -3 77 -77 3 -77 3 0 84 0 84 75 1 75 1 5 79 5 79 78 -1 77 -1 0 79 c0
53 -4 79 -12 82 -7 3 -42 4 -78 4 l-65 -1 -3 -77 -3 -76 -67 -4 c-37 -2 -73 0
-80 6 -9 6 -12 31 -10 79 l3 70 77 -1 77 -1 3 81 3 80 155 1 155 2 3 158 c1
86 -1 158 -5 158 -5 1 -35 3 -69 4 -33 1 -65 5 -72 9 -7 4 -12 33 -12 76 0 49
-4 69 -14 73 -8 3 -115 5 -238 4 l-223 -2 0 -160 0 -160 75 0 75 0 5 78 c3 42
8 77 13 77 4 0 39 0 77 0 l70 0 0 -155 0 -155 -62 -2 c-35 0 -70 -1 -78 -2
-12 -1 -16 -18 -18 -78 l-3 -78 -64 -1 c-36 -1 -71 -2 -77 -3 -9 -1 -15 -27
-18 -81 l-5 -79 -68 -1 c-40 0 -73 5 -78 12 -6 6 -9 41 -7 78 l3 68 78 -1 77
-1 0 79 c0 56 -4 79 -13 83 -8 3 -79 4 -158 4 l-144 -2 -3 -237 -2 -238 -143
-2 c-78 0 -149 -1 -157 -2 -13 -1 -15 -26 -15 -166 l0 -165 238 -3 237 -2 0
-80 0 -79 -77 -3 -78 -3 -3 -77 -3 -78 -239 0 -240 0 0 80 0 81 -77 -3 -78 -3
-3 -78 -3 -78 -77 3 -77 3 -3 78 -3 78 -77 -3 -77 -3 -3 -77 -3 -77 -77 -3
-77 -3 0 -315 0 -315 78 -3 77 -3 0 -79 0 -80 -160 0 -160 0 0 240 0 241 -77
-3 -78 -3 -3 -77 -3 -77 -77 -3 -77 -3 -3 -77 -3 -78 -79 0 -80 0 0 80 0 80
-162 2 -163 3 -3 78 -3 77 81 0 80 0 0 160 0 160 -320 0 -321 0 3 -77 3 -78
77 -3 77 -3 3 -77 3 -77 78 -3 77 -3 0 -160 0 -160 -77 3 -78 3 -3 77 -3 77
-77 3 -77 3 -3 78 -3 77 -159 0 -160 0 0 -160 0 -160 -240 0 -240 0 0 80 0 80
-80 0 -80 0 0 -80 0 -81 -77 3 -78 3 -3 238 -2 237 79 0 80 0 3 -77 3 -78 78
-3 77 -3 0 161 0 160 80 0 80 0 2 -237 3 -238 78 -3 77 -3 0 161 0 160 160 0
160 0 0 80 0 79 -157 3 -158 3 -3 78 -3 77 161 0 160 0 0 80 0 80 80 0 80 0 0
80 0 79 78 3 77 3 3 159 c2 121 -1 162 -10 168 -7 4 -43 7 -80 7 l-67 -2 -3
-80 -3 -80 -75 -1 -75 -1 -3 -87 -3 -88 -479 0 -480 0 0 -80 0 -81 -77 3 -78
3 -3 78 -3 77 -79 0 -80 0 0 88 0 88 78 0 77 -1 3 77 3 76 -28 6 c-16 4 -52 6
-80 5 l-52 -2 -3 -79 -3 -80 -65 -2 c-36 -1 -71 0 -77 2 -9 3 -13 28 -13 81
l0 77 78 0 77 -1 3 81 3 80 77 0 77 -1 3 81 3 80 77 0 77 -1 3 80 3 80 147 -2
c81 -1 153 -3 160 -3 9 0 12 -38 12 -155 0 -177 -5 -168 100 -162 l55 3 5 78
5 78 75 2 75 1 3 80 3 80 147 -2 c81 -1 153 -3 160 -3 8 0 12 -22 12 -75 0
-86 2 -88 100 -82 l55 3 3 157 3 156 -36 7 c-19 3 -50 4 -67 0 -57 -10 -59 -5
-56 163 l3 153 75 2 75 1 3 161 2 160 78 0 77 -1 5 159 5 158 75 2 75 1 3 161
2 160 78 0 77 -1 3 157 2 156 -27 6 c-16 4 -52 6 -80 5 l-53 -2 -2 -159 -3
-160 -65 -2 c-36 -1 -71 0 -77 2 -10 3 -13 44 -13 161 l0 157 78 0 77 -1 3 80
3 80 147 -2 c81 -1 153 -3 160 -3 8 0 12 -22 12 -74 0 -86 0 -86 101 -86 l69
0 0 -75 0 -75 -62 -2 c-35 -1 -72 -2 -83 -2 -19 -1 -20 -9 -23 -155 -2 -117 1
-156 10 -163 7 -4 45 -8 85 -8 l72 0 3 -77 c3 -87 -6 -80 101 -82 l58 -1 -3
-76 -3 -77 -155 1 c-85 1 -158 1 -162 1 -5 1 -8 34 -8 75 0 71 -1 74 -26 80
-14 4 -86 6 -160 5 l-134 -1 0 -78 c0 -89 4 -94 83 -90 84 5 78 19 75 -157
l-3 -156 -75 -1 -75 -1 -5 -79 -5 -78 -157 1 -158 0 0 -78 c0 -66 3 -80 18
-86 9 -3 73 -6 142 -5 69 1 133 1 143 1 16 -1 18 -10 15 -77 l-3 -76 -75 -1
-75 -2 -3 -77 c-3 -89 -2 -91 98 -85 l55 3 3 80 3 80 67 -2 c37 -1 73 -3 80
-3 10 -1 12 -21 10 -78 l-3 -77 -78 1 -78 2 3 -77 3 -77 323 -3 322 -2 0 74
c0 54 -4 75 -14 79 -7 3 -76 6 -152 6 -77 0 -145 0 -151 0 -10 1 -13 40 -13
160 l0 160 28 -3 c15 -2 53 -4 84 -5 l57 -1 3 -77 3 -78 235 0 235 0 3 154 c2
105 -1 157 -8 161 -7 4 -42 7 -78 6 l-67 -1 -5 -80 -5 -80 -65 0 c-36 0 -71 4
-77 9 -8 5 -13 34 -13 77 0 38 -3 70 -7 70 -5 1 -35 3 -69 4 -33 1 -65 5 -72
9 -7 4 -12 34 -12 77 0 48 -4 69 -12 71 -7 0 -40 2 -73 3 -33 2 -66 3 -73 4
-10 1 -12 21 -10 79 2 42 6 76 11 75 4 -2 113 -3 242 -3 l234 0 3 -77 3 -78
157 -2 157 -2 3 80 3 81 155 1 155 2 5 239 5 239 77 -1 77 -1 3 81 3 81 78 -1
77 -1 0 79 c0 53 -4 79 -12 82 -7 3 -42 4 -78 4 l-65 -1 -3 -77 -3 -78 -64 -1
c-36 -1 -71 -2 -77 -3 -9 -1 -14 -26 -16 -78 l-3 -78 -62 -2 c-34 0 -69 -1
-77 -2 -12 -1 -16 -28 -20 -161 l-5 -160 -65 0 c-36 0 -71 4 -77 9 -8 5 -13
33 -13 76 0 45 -4 69 -12 72 -7 3 -42 4 -78 4 l-65 -1 -5 -80 -5 -79 -68 -1
c-40 0 -73 5 -78 12 -6 6 -9 41 -7 78 l3 68 77 -1 77 -1 3 81 3 81 75 1 75 1
5 238 5 238 235 2 235 2 5 79 5 79 77 -1 78 -1 2 161 3 161 78 -1 77 -1 0 79
c0 57 -4 79 -14 83 -7 3 -78 5 -157 4 l-144 -2 -5 -80 -5 -79 -75 -1 -75 0 -5
-80 -5 -79 -75 -1 -75 0 -5 -80 -5 -79 -68 -1 c-40 0 -73 5 -78 11 -5 7 -8 77
-7 159 l3 148 75 1 75 1 5 79 5 79 75 1 75 1 3 74 c2 50 -1 77 -9 82 -14 8
-295 10 -303 1z m-486 -557 l0 -73 -67 -4 c-38 -2 -74 0 -80 5 -12 9 -19 137
-9 148 2 2 38 3 80 1 l76 -4 0 -73z m320 -400 l0 -314 -147 -3 c-82 -2 -154 1
-161 6 -9 6 -12 30 -10 79 l3 70 75 1 75 1 3 74 c2 47 -1 77 -8 81 -6 4 -41 7
-78 6 l-67 -1 -3 -77 -3 -76 -67 -4 c-37 -2 -73 0 -80 6 -9 6 -12 31 -10 79
l3 70 78 -1 77 -1 0 158 c0 87 2 160 4 162 2 2 74 3 160 1 l156 -3 0 -314z
m-667 -1124 c16 -1 18 -10 15 -77 l-3 -76 -65 -2 c-36 -1 -71 0 -77 2 -9 3
-13 27 -13 76 0 40 2 75 4 77 4 3 70 3 139 0z m-955 -161 c10 0 12 -19 10 -77
l-3 -76 -75 -1 -75 -1 -5 -78 -5 -79 -65 -2 c-36 -1 -71 0 -77 2 -10 3 -13 44
-13 161 l0 156 147 -2 c82 -1 154 -3 161 -3z m3062 -1046 l0 -85 -77 3 -78 3
-3 74 c-2 41 -1 79 1 85 3 7 32 10 81 8 l76 -4 0 -84z m-4650 -164 l0 -80 80
0 80 0 0 -80 0 -81 -77 3 -78 3 -3 78 -3 77 -79 0 -80 0 0 80 0 80 80 0 80 0
0 -80z m480 0 l0 -81 -77 3 -78 3 -3 78 -3 77 81 0 80 0 0 -80z m480 -160 l0
-80 80 0 80 0 0 -80 0 -81 -77 3 -78 3 -3 77 -3 77 -77 3 -77 3 -3 78 -3 77
81 0 80 0 0 -80z m4650 0 l0 -79 -77 -3 -78 -3 0 -75 0 -75 158 -3 157 -3 0
-159 0 -160 -80 0 -80 0 0 80 0 81 -157 -3 -158 -3 -3 -238 -2 -238 -78 3 -77
3 -3 158 -3 157 -79 0 -80 0 0 -80 0 -81 -77 3 -78 3 -3 77 -3 77 -77 3 -77 3
-3 77 -3 77 -77 3 -77 3 -3 78 -3 77 241 0 240 0 0 -80 0 -80 80 0 79 0 3 78
3 77 78 3 77 3 0 159 0 160 160 0 160 0 0 -80z m-4970 -320 l0 -80 -80 0 -80
0 0 -80 0 -80 -80 0 -81 0 3 -77 3 -78 78 -3 77 -3 0 -79 0 -80 80 0 79 0 3
-157 3 -158 78 -3 77 -3 0 81 0 80 80 0 80 0 0 80 0 80 80 0 80 0 0 -160 0
-160 -160 0 -160 0 0 -80 0 -80 -160 0 -160 0 0 80 0 80 -240 0 -240 0 0 80 0
80 80 0 80 0 0 240 0 240 80 0 80 0 0 80 0 80 80 0 80 0 0 80 0 80 80 0 80 0
0 -80z m3370 0 l0 -80 160 0 160 0 0 -160 0 -159 -77 -3 -78 -3 0 -75 0 -75
78 -3 77 -3 0 -79 0 -79 -157 -3 -158 -3 0 -75 0 -75 78 -3 77 -3 0 -79 0 -80
80 0 79 0 3 78 3 77 77 3 77 3 3 157 3 157 77 3 77 3 3 -78 3 -78 78 -3 77 -3
0 -79 0 -80 -160 0 -160 0 0 -160 0 -161 -157 3 -158 3 -3 78 -3 77 -240 0
-239 0 2 238 3 237 78 3 77 3 0 79 0 79 -77 3 -78 3 -3 77 -3 77 -77 3 -77 3
0 75 0 75 78 3 77 3 0 -81 0 -80 160 0 160 0 0 80 0 79 -77 3 -78 3 -3 78 -3
77 81 0 80 0 0 -80z m-1610 -160 l0 -80 -80 0 -80 0 0 80 0 80 80 0 80 0 0
-80z m-480 -480 l0 -80 -80 0 -80 0 0 80 0 80 80 0 80 0 0 -80z m810 0 l0 -81
-82 3 -83 3 -3 78 -3 77 86 0 85 0 0 -80z m2560 -240 l0 -160 80 0 79 0 3 78
3 77 78 3 77 3 0 -81 0 -80 80 0 80 0 0 -240 0 -240 -80 0 -80 0 0 -160 0
-159 -77 -3 -78 -3 0 -155 0 -155 77 -3 77 -3 3 78 3 78 78 3 77 3 0 -160 0
-160 -77 -3 -78 -3 -3 -77 -3 -78 -159 0 -160 0 0 80 0 80 -80 0 -80 0 0 80 0
81 -77 -3 -78 -3 -3 -77 -3 -77 -77 -3 -77 -3 -3 -78 -3 -78 -77 3 -77 3 -3
78 -3 77 -80 0 -80 0 3 78 3 77 77 3 77 3 3 77 3 77 238 3 237 2 0 -80 0 -80
80 0 80 0 2 238 3 237 78 3 77 3 0 79 0 79 -77 3 -78 3 0 75 0 75 78 3 77 3 0
-81 0 -80 80 0 80 0 0 240 0 240 -80 0 -80 0 0 -80 0 -81 -77 3 -78 3 -3 78
-3 78 -77 -3 -77 -3 -3 -78 -3 -78 -77 3 -77 3 0 155 0 155 78 3 77 3 0 73 c0
40 3 76 7 79 3 4 39 7 80 7 l73 0 0 -160z m-480 -240 l0 -81 -77 3 -78 3 -3
64 c-2 35 -1 70 2 77 4 10 27 14 81 14 l75 0 0 -80z m-1440 -160 l0 -80 -80 0
-81 0 3 -77 3 -78 78 -3 77 -3 0 -80 0 -80 -157 3 -158 3 0 155 0 155 78 3 77
3 0 73 c0 40 3 76 7 79 3 4 39 7 80 7 l73 0 0 -80z m1120 -160 l0 -79 -77 -3
-78 -3 -3 -77 -3 -78 81 0 80 0 0 -160 0 -161 -77 3 -78 3 -3 158 -3 157 -79
0 -80 0 0 80 0 80 -80 0 -80 0 0 73 c0 41 3 77 7 80 3 4 111 7 240 7 l233 0 0
-80z m640 -160 l0 -240 -237 2 -238 3 -3 225 c-1 123 0 230 2 237 4 10 59 13
241 13 l235 0 0 -240z m-2240 -160 l0 -80 80 0 79 0 3 -157 3 -158 78 -3 77
-3 0 -79 0 -80 240 0 240 0 0 -80 0 -80 -237 2 -238 3 -3 77 -3 78 -237 2
-237 3 0 155 0 155 78 3 77 3 0 79 0 80 -165 0 -165 0 0 -160 0 -161 -157 3
-158 3 -3 78 -3 77 81 0 80 0 0 80 0 80 80 0 80 0 0 80 0 80 165 0 165 0 0
-80z m-1288 -157 l3 -78 78 -3 77 -3 0 -239 0 -240 -80 0 -80 0 0 160 0 160
-80 0 -80 0 0 -160 0 -160 -80 0 -80 0 0 80 0 79 -77 3 -78 3 -3 78 -3 77 81
0 80 0 0 80 0 80 80 0 80 0 0 80 0 80 80 0 79 0 3 -77z m480 -240 l3 -158 158
-3 157 -3 0 -79 0 -80 -237 2 -238 3 -3 238 -2 237 80 0 79 0 3 -157z m1608
77 l0 -81 -77 3 -78 3 -3 64 c-2 35 -1 70 2 77 4 10 27 14 81 14 l75 0 0 -80z"/>
<path d="M5697 2933 c-4 -3 -7 -39 -7 -80 l0 -73 80 0 80 0 0 80 0 80 -73 0
c-41 0 -77 -3 -80 -7z"/>
<path d="M1202 2383 l3 -78 78 -3 77 -3 0 81 0 80 -80 0 -81 0 3 -77z"/>
<path d="M5694 1486 c-3 -7 -4 -42 -2 -77 l3 -64 78 -3 77 -3 0 81 0 80 -75 0
c-54 0 -77 -4 -81 -14z"/>
<path d="M5214 6946 c-3 -7 -4 -44 -2 -82 3 -77 -5 -71 101 -73 l58 -1 -3 -76
-3 -77 -155 -1 -155 -1 -5 -160 -5 -160 -75 0 -75 0 0 -80 c0 -73 2 -80 20
-81 11 -1 82 -2 158 -3 l137 -1 0 -75 0 -75 -62 -2 c-35 0 -70 -1 -78 -2 -12
-1 -16 -19 -20 -81 l-5 -80 -75 0 -75 0 -5 -80 -5 -80 -75 0 -75 0 0 -160 0
-160 155 0 155 0 5 78 c3 42 8 77 13 77 4 0 38 0 77 0 l69 0 3 -77 c3 -70 5
-78 23 -79 11 -1 190 -2 398 -3 l377 -1 0 -75 0 -75 -302 -2 c-167 0 -310 -1
-318 -2 -12 -1 -16 -18 -18 -78 l-3 -78 -64 -1 c-36 -1 -71 -2 -77 -3 -9 -1
-14 -25 -16 -78 l-3 -76 -67 -4 c-37 -2 -73 0 -80 6 -9 6 -12 31 -10 79 l3 70
78 -1 77 -1 0 79 c0 53 -4 79 -12 82 -7 3 -42 4 -78 4 l-65 -1 -3 -77 -3 -78
-142 -2 c-78 0 -149 -1 -157 -2 -12 -1 -15 -17 -15 -81 0 -90 -9 -82 97 -84
l57 -1 3 -77 c3 -87 -6 -80 100 -82 l57 -1 3 -77 3 -78 77 -2 78 -1 2 160 3
161 75 1 75 1 5 78 c3 42 8 77 13 77 4 0 38 0 77 0 l69 0 3 -157 3 -158 77 -2
78 -1 2 160 3 160 155 1 155 2 5 79 5 79 75 1 75 1 3 234 c2 162 -1 237 -9
241 -6 4 -41 7 -77 6 l-67 -1 -5 -80 -5 -80 -65 0 c-36 0 -71 4 -77 9 -8 5
-13 33 -13 76 0 49 -4 69 -14 73 -8 3 -112 6 -232 6 -119 0 -221 4 -226 9 -5
5 -8 39 -6 77 l3 68 75 1 75 1 3 74 c2 47 -1 77 -8 81 -6 4 -41 7 -78 6 l-67
-1 -3 -77 -3 -76 -67 -4 c-37 -2 -73 0 -80 6 -9 6 -12 31 -10 79 l3 70 78 -1
77 -1 0 160 c0 87 -3 160 -7 160 -5 1 -36 3 -71 4 -34 1 -67 6 -73 12 -5 5 -9
40 -7 77 l3 68 155 1 155 2 3 234 c2 173 -1 237 -9 242 -7 4 -77 7 -156 7
-107 0 -146 -3 -149 -12z"/>
<path d="M5694 6947 c-2 -6 -3 -259 -2 -562 l3 -550 555 0 555 0 3 554 c2 437
0 556 -10 563 -7 4 -257 7 -556 7 -419 0 -544 -2 -548 -12z m954 -553 l-3
-395 -388 0 c-214 0 -392 3 -398 6 -9 6 -14 777 -5 786 2 2 182 3 400 1 l396
-2 -2 -396z"/>
<path d="M6014 6627 c-2 -7 -3 -116 -2 -242 l3 -230 235 0 235 0 3 234 c2 177
-1 236 -10 242 -22 14 -458 9 -464 -4z"/>
<path d="M4414 5985 c-3 -7 -4 -43 -2 -81 l3 -69 78 -2 77 -1 0 79 c0 43 -3
80 -7 80 -44 8 -146 4 -149 -6z"/>
<path d="M6334 5506 c-2 -6 -3 -79 -2 -161 l3 -150 75 0 75 0 5 79 5 79 75 1
75 1 3 74 c2 50 -1 77 -9 82 -22 13 -300 9 -305 -5z"/>
<path d="M244 5031 c-2 -2 -4 -181 -4 -397 l0 -394 24 -6 c13 -3 84 -4 157 -2
l134 3 3 77 3 77 -36 7 c-19 3 -50 4 -67 0 -57 -10 -59 -5 -56 163 l3 153 75
2 75 1 3 81 3 80 77 0 77 -1 3 77 3 77 -33 6 c-18 3 -53 4 -78 2 l-45 -5 -5
-77 -5 -77 -65 -2 c-36 -1 -71 0 -77 2 -9 3 -13 28 -13 78 l0 73 -32 6 c-34 6
-116 3 -124 -4z"/>
<path d="M4254 5027 c-2 -7 -3 -80 -2 -162 3 -170 -8 -152 101 -154 l57 -1 0
-75 0 -75 -62 -2 c-35 0 -70 -1 -78 -2 -12 -1 -16 -19 -20 -81 l-5 -79 -75 -1
-75 0 -5 -80 c-3 -54 -9 -80 -17 -81 -37 -4 -38 -5 -23 -17 40 -32 45 -49 50
-176 l5 -126 153 -2 152 -2 0 78 c0 43 2 80 4 82 2 2 39 3 81 1 l76 -4 -3 -76
-3 -77 -75 0 -75 0 -5 -80 -5 -79 -75 -1 -75 0 -3 -167 -2 -168 -76 0 -75 0 3
-77 3 -78 73 -3 72 -3 0 81 0 80 160 0 159 0 3 78 3 77 77 3 77 3 3 86 3 86
75 1 75 1 5 79 5 79 75 1 75 1 5 79 5 79 75 1 75 1 5 79 5 79 77 -1 77 -1 3
81 3 81 75 1 75 1 3 76 c2 58 -1 78 -11 82 -8 3 -79 4 -158 4 l-144 -2 -5 -80
-5 -79 -75 -1 -75 0 -5 -80 -5 -80 -65 0 c-36 0 -71 4 -77 9 -8 5 -13 33 -13
76 0 45 -4 69 -12 72 -7 3 -42 4 -78 4 l-65 -1 -5 -79 -5 -79 -149 1 c-82 0
-153 5 -158 10 -5 5 -7 75 -6 157 l3 148 78 -1 77 -1 0 239 c0 185 -3 239 -13
243 -7 3 -77 5 -155 5 -106 1 -144 -2 -148 -11z m636 -1032 l0 -73 -67 -4
c-38 -2 -74 0 -80 5 -12 9 -19 137 -9 148 2 2 38 3 80 1 l76 -4 0 -73z"/>
<path d="M6174 5026 c-3 -7 -4 -44 -2 -82 3 -77 -5 -71 100 -73 l57 -1 3 -77
3 -78 77 -2 77 -1 3 80 3 81 78 -1 77 -1 0 79 c0 58 -4 79 -14 83 -8 3 -114 6
-236 6 -171 0 -222 -3 -226 -13z"/>
<path d="M6655 4867 c-3 -7 -6 -43 -7 -82 l-3 -70 -75 0 -75 0 0 -80 c0 -90
-9 -82 97 -84 l57 -1 3 -77 3 -78 75 0 75 0 3 238 c1 130 -1 238 -5 238 -47 8
-145 5 -148 -4z"/>
<path d="M4574 4546 c-3 -7 -4 -44 -2 -82 l3 -69 78 -2 77 -1 0 79 c0 43 -3
80 -7 80 -5 1 -39 3 -76 5 -48 2 -70 -1 -73 -10z"/>
<path d="M1204 4391 c-2 -2 -4 -37 -4 -77 0 -85 2 -87 100 -81 l55 3 3 77 3
76 -33 6 c-34 6 -116 3 -124 -4z"/>
<path d="M2798 4159 l-3 -79 -235 -3 -235 -2 -3 -77 c-3 -75 -2 -78 21 -83 14
-4 121 -5 238 -3 l214 3 3 82 3 83 42 -6 c23 -3 59 -2 80 1 35 6 37 9 37 43 0
40 32 102 52 102 9 0 8 3 -2 10 -8 6 -59 10 -112 9 l-97 -1 -3 -79z"/>
<path d="M1685 3911 c-3 -2 -5 -37 -5 -77 0 -90 -6 -87 181 -82 l134 3 3 76
c3 76 3 77 -25 84 -29 7 -281 4 -288 -4z"/>
<path d="M4064 3135 c-23 -26 -21 -35 8 -35 13 0 18 8 18 30 0 17 -1 30 -2 30
-2 0 -13 -11 -24 -25z"/>
<path d="M3614 3087 c-2 -7 -3 -78 -2 -157 l3 -145 78 -3 77 -3 0 161 0 160
-75 0 c-53 0 -77 -4 -81 -13z"/>
<path d="M242 2063 l3 -78 78 -3 77 -3 0 81 0 80 -80 0 -81 0 3 -77z"/>
<path d="M242 943 l3 -558 558 -3 557 -2 0 560 0 560 -560 0 -560 0 2 -557z
m958 -3 l0 -400 -397 2 -398 3 -3 398 -2 397 400 0 400 0 0 -400z"/>
<path d="M562 943 l3 -238 238 -3 237 -2 0 240 0 240 -240 0 -240 0 2 -237z"/>
</g>
</svg>
